solid OpenSCAD_Model
  facet normal -1 0 0
    outer loop
      vertex -5 -10 -2
      vertex -5 10 2
      vertex -5 10 -2
    endloop
  endfacet
  facet normal -1 -0 0
    outer loop
      vertex -5 10 2
      vertex -5 -10 -2
      vertex -5 -10 2
    endloop
  endfacet
  facet normal 0 0 1
    outer loop
      vertex 5 10 2
      vertex 3.25 5 2
      vertex 5 -10 2
    endloop
  endfacet
  facet normal 0 0 1
    outer loop
      vertex 5 10 2
      vertex 1.625 7.81458 2
      vertex 3.25 5 2
    endloop
  endfacet
  facet normal 0 0 1
    outer loop
      vertex 5 10 2
      vertex -1.625 7.81458 2
      vertex 1.625 7.81458 2
    endloop
  endfacet
  facet normal 0 0 1
    outer loop
      vertex -1.625 7.81458 2
      vertex -5 10 2
      vertex -3.25 5 2
    endloop
  endfacet
  facet normal -0 0 1
    outer loop
      vertex -5 10 2
      vertex -1.625 7.81458 2
      vertex 5 10 2
    endloop
  endfacet
  facet normal -0 0 1
    outer loop
      vertex 1.625 2.18542 2
      vertex 5 -10 2
      vertex 3.25 5 2
    endloop
  endfacet
  facet normal -0 0 1
    outer loop
      vertex -1.625 2.18542 2
      vertex 5 -10 2
      vertex 1.625 2.18542 2
    endloop
  endfacet
  facet normal 0 0 1
    outer loop
      vertex -5 -10 2
      vertex -1.625 2.18542 2
      vertex -3.25 5 2
    endloop
  endfacet
  facet normal 0 0 1
    outer loop
      vertex -1.625 2.18542 2
      vertex -5 -10 2
      vertex 5 -10 2
    endloop
  endfacet
  facet normal 0 0 1
    outer loop
      vertex -5 -10 2
      vertex -3.25 5 2
      vertex -5 10 2
    endloop
  endfacet
  facet normal 1 -0 0
    outer loop
      vertex 5 -10 2
      vertex 5 10 -2
      vertex 5 10 2
    endloop
  endfacet
  facet normal 1 0 0
    outer loop
      vertex 5 10 -2
      vertex 5 -10 2
      vertex 5 -10 -2
    endloop
  endfacet
  facet normal 0 1 -0
    outer loop
      vertex 5 10 -2
      vertex -5 10 2
      vertex 5 10 2
    endloop
  endfacet
  facet normal 0 1 0
    outer loop
      vertex -5 10 2
      vertex 5 10 -2
      vertex -5 10 -2
    endloop
  endfacet
  facet normal 0 0 -1
    outer loop
      vertex 1.66435 4.45922 -2
      vertex 5 10 -2
      vertex 5 -10 -2
    endloop
  endfacet
  facet normal 0 0 -1
    outer loop
      vertex 5 10 -2
      vertex 1.74655 4.89012 -2
      vertex 1.75 5 -2
    endloop
  endfacet
  facet normal 0 0 -1
    outer loop
      vertex 5 10 -2
      vertex 1.7362 4.78067 -2
      vertex 1.74655 4.89012 -2
    endloop
  endfacet
  facet normal 0 0 -1
    outer loop
      vertex 5 10 -2
      vertex 1.719 4.67208 -2
      vertex 1.7362 4.78067 -2
    endloop
  endfacet
  facet normal 0 0 -1
    outer loop
      vertex 5 10 -2
      vertex 1.69502 4.56479 -2
      vertex 1.719 4.67208 -2
    endloop
  endfacet
  facet normal 0 0 -1
    outer loop
      vertex 5 10 -2
      vertex 1.66435 4.45922 -2
      vertex 1.69502 4.56479 -2
    endloop
  endfacet
  facet normal 0 0 -1
    outer loop
      vertex 5 -10 -2
      vertex 1.62711 4.35578 -2
      vertex 1.66435 4.45922 -2
    endloop
  endfacet
  facet normal 0 0 -1
    outer loop
      vertex 5 -10 -2
      vertex 1.58345 4.25489 -2
      vertex 1.62711 4.35578 -2
    endloop
  endfacet
  facet normal 0 0 -1
    outer loop
      vertex 5 -10 -2
      vertex 1.53354 4.15693 -2
      vertex 1.58345 4.25489 -2
    endloop
  endfacet
  facet normal 0 0 -1
    outer loop
      vertex 5 -10 -2
      vertex 1.47757 4.0623 -2
      vertex 1.53354 4.15693 -2
    endloop
  endfacet
  facet normal 0 0 -1
    outer loop
      vertex 5 -10 -2
      vertex 1.41578 3.97138 -2
      vertex 1.47757 4.0623 -2
    endloop
  endfacet
  facet normal 0 0 -1
    outer loop
      vertex 5 -10 -2
      vertex 1.3484 3.88451 -2
      vertex 1.41578 3.97138 -2
    endloop
  endfacet
  facet normal 0 0 -1
    outer loop
      vertex 5 -10 -2
      vertex 1.27569 3.80204 -2
      vertex 1.3484 3.88451 -2
    endloop
  endfacet
  facet normal 0 0 -1
    outer loop
      vertex 5 -10 -2
      vertex 1.19796 3.7243 -2
      vertex 1.27569 3.80204 -2
    endloop
  endfacet
  facet normal 0 0 -1
    outer loop
      vertex 5 -10 -2
      vertex 1.11549 3.6516 -2
      vertex 1.19796 3.7243 -2
    endloop
  endfacet
  facet normal 0 0 -1
    outer loop
      vertex 5 -10 -2
      vertex 1.02862 3.58422 -2
      vertex 1.11549 3.6516 -2
    endloop
  endfacet
  facet normal 0 0 -1
    outer loop
      vertex 5 -10 -2
      vertex 0.937696 3.52243 -2
      vertex 1.02862 3.58422 -2
    endloop
  endfacet
  facet normal 0 0 -1
    outer loop
      vertex 5 -10 -2
      vertex 0.843068 3.46646 -2
      vertex 0.937696 3.52243 -2
    endloop
  endfacet
  facet normal 0 0 -1
    outer loop
      vertex 5 -10 -2
      vertex 0.745113 3.41655 -2
      vertex 0.843068 3.46646 -2
    endloop
  endfacet
  facet normal 0 0 -1
    outer loop
      vertex 5 -10 -2
      vertex 0.644217 3.37289 -2
      vertex 0.745113 3.41655 -2
    endloop
  endfacet
  facet normal 0 0 -1
    outer loop
      vertex 5 -10 -2
      vertex 0.540779 3.33565 -2
      vertex 0.644217 3.37289 -2
    endloop
  endfacet
  facet normal 0 0 -1
    outer loop
      vertex 5 -10 -2
      vertex 0.435206 3.30498 -2
      vertex 0.540779 3.33565 -2
    endloop
  endfacet
  facet normal 0 0 -1
    outer loop
      vertex 5 -10 -2
      vertex 0.327917 3.281 -2
      vertex 0.435206 3.30498 -2
    endloop
  endfacet
  facet normal 0 0 -1
    outer loop
      vertex 5 -10 -2
      vertex 0.219333 3.2638 -2
      vertex 0.327917 3.281 -2
    endloop
  endfacet
  facet normal 0 0 -1
    outer loop
      vertex 5 -10 -2
      vertex 0.109883 3.25345 -2
      vertex 0.219333 3.2638 -2
    endloop
  endfacet
  facet normal 0 0 -1
    outer loop
      vertex 5 -10 -2
      vertex 0 3.25 -2
      vertex 0.109883 3.25345 -2
    endloop
  endfacet
  facet normal 0 0 -1
    outer loop
      vertex -5 -10 -2
      vertex 0 3.25 -2
      vertex 5 -10 -2
    endloop
  endfacet
  facet normal -0 0 -1
    outer loop
      vertex 0 3.25 -2
      vertex -5 -10 -2
      vertex -0.109883 3.25345 -2
    endloop
  endfacet
  facet normal -0 0 -1
    outer loop
      vertex -0.109883 3.25345 -2
      vertex -5 -10 -2
      vertex -0.219333 3.2638 -2
    endloop
  endfacet
  facet normal -0 0 -1
    outer loop
      vertex -0.219333 3.2638 -2
      vertex -5 -10 -2
      vertex -0.327917 3.281 -2
    endloop
  endfacet
  facet normal -0 0 -1
    outer loop
      vertex -0.327917 3.281 -2
      vertex -5 -10 -2
      vertex -0.435206 3.30498 -2
    endloop
  endfacet
  facet normal -0 0 -1
    outer loop
      vertex -0.435206 3.30498 -2
      vertex -5 -10 -2
      vertex -0.540779 3.33565 -2
    endloop
  endfacet
  facet normal -0 0 -1
    outer loop
      vertex -0.540779 3.33565 -2
      vertex -5 -10 -2
      vertex -0.644217 3.37289 -2
    endloop
  endfacet
  facet normal -0 0 -1
    outer loop
      vertex -0.644217 3.37289 -2
      vertex -5 -10 -2
      vertex -0.745113 3.41655 -2
    endloop
  endfacet
  facet normal -0 0 -1
    outer loop
      vertex -0.745113 3.41655 -2
      vertex -5 -10 -2
      vertex -0.843068 3.46646 -2
    endloop
  endfacet
  facet normal -0 0 -1
    outer loop
      vertex -0.843068 3.46646 -2
      vertex -5 -10 -2
      vertex -0.937696 3.52243 -2
    endloop
  endfacet
  facet normal -0 0 -1
    outer loop
      vertex -0.937696 3.52243 -2
      vertex -5 -10 -2
      vertex -1.02862 3.58422 -2
    endloop
  endfacet
  facet normal -0 0 -1
    outer loop
      vertex -1.02862 3.58422 -2
      vertex -5 -10 -2
      vertex -1.11549 3.6516 -2
    endloop
  endfacet
  facet normal -0 0 -1
    outer loop
      vertex -1.11549 3.6516 -2
      vertex -5 -10 -2
      vertex -1.19796 3.7243 -2
    endloop
  endfacet
  facet normal -0 0 -1
    outer loop
      vertex -1.19796 3.7243 -2
      vertex -5 -10 -2
      vertex -1.27569 3.80204 -2
    endloop
  endfacet
  facet normal -0 0 -1
    outer loop
      vertex -1.27569 3.80204 -2
      vertex -5 -10 -2
      vertex -1.3484 3.88451 -2
    endloop
  endfacet
  facet normal -0 0 -1
    outer loop
      vertex -1.3484 3.88451 -2
      vertex -5 -10 -2
      vertex -1.41578 3.97138 -2
    endloop
  endfacet
  facet normal -0 0 -1
    outer loop
      vertex -1.41578 3.97138 -2
      vertex -5 -10 -2
      vertex -1.47757 4.0623 -2
    endloop
  endfacet
  facet normal -0 0 -1
    outer loop
      vertex -1.47757 4.0623 -2
      vertex -5 -10 -2
      vertex -1.53354 4.15693 -2
    endloop
  endfacet
  facet normal 0 0 -1
    outer loop
      vertex -1.7362 4.78067 -2
      vertex -5 10 -2
      vertex -1.74655 4.89012 -2
    endloop
  endfacet
  facet normal 0 0 -1
    outer loop
      vertex -1.719 4.67208 -2
      vertex -5 10 -2
      vertex -1.7362 4.78067 -2
    endloop
  endfacet
  facet normal 0 0 -1
    outer loop
      vertex -1.69502 4.56479 -2
      vertex -5 10 -2
      vertex -1.719 4.67208 -2
    endloop
  endfacet
  facet normal 0 0 -1
    outer loop
      vertex -1.66435 4.45922 -2
      vertex -5 10 -2
      vertex -1.69502 4.56479 -2
    endloop
  endfacet
  facet normal 0 0 -1
    outer loop
      vertex -5 10 -2
      vertex -1.66435 4.45922 -2
      vertex -5 -10 -2
    endloop
  endfacet
  facet normal -0 0 -1
    outer loop
      vertex -1.62711 4.35578 -2
      vertex -5 -10 -2
      vertex -1.66435 4.45922 -2
    endloop
  endfacet
  facet normal -0 0 -1
    outer loop
      vertex -1.58345 4.25489 -2
      vertex -5 -10 -2
      vertex -1.62711 4.35578 -2
    endloop
  endfacet
  facet normal -0 0 -1
    outer loop
      vertex -1.53354 4.15693 -2
      vertex -5 -10 -2
      vertex -1.58345 4.25489 -2
    endloop
  endfacet
  facet normal 0 0 -1
    outer loop
      vertex 1.74655 5.10988 -2
      vertex 5 10 -2
      vertex 1.75 5 -2
    endloop
  endfacet
  facet normal 0 0 -1
    outer loop
      vertex 1.7362 5.21933 -2
      vertex 5 10 -2
      vertex 1.74655 5.10988 -2
    endloop
  endfacet
  facet normal 0 0 -1
    outer loop
      vertex 1.719 5.32792 -2
      vertex 5 10 -2
      vertex 1.7362 5.21933 -2
    endloop
  endfacet
  facet normal 0 0 -1
    outer loop
      vertex 1.69502 5.43521 -2
      vertex 5 10 -2
      vertex 1.719 5.32792 -2
    endloop
  endfacet
  facet normal 0 0 -1
    outer loop
      vertex 1.66435 5.54078 -2
      vertex 5 10 -2
      vertex 1.69502 5.43521 -2
    endloop
  endfacet
  facet normal 0 0 -1
    outer loop
      vertex 1.62711 5.64422 -2
      vertex 5 10 -2
      vertex 1.66435 5.54078 -2
    endloop
  endfacet
  facet normal 0 0 -1
    outer loop
      vertex 1.58345 5.74511 -2
      vertex 5 10 -2
      vertex 1.62711 5.64422 -2
    endloop
  endfacet
  facet normal 0 0 -1
    outer loop
      vertex 1.53354 5.84307 -2
      vertex 5 10 -2
      vertex 1.58345 5.74511 -2
    endloop
  endfacet
  facet normal 0 0 -1
    outer loop
      vertex 1.47757 5.9377 -2
      vertex 5 10 -2
      vertex 1.53354 5.84307 -2
    endloop
  endfacet
  facet normal 0 0 -1
    outer loop
      vertex 1.41578 6.02862 -2
      vertex 5 10 -2
      vertex 1.47757 5.9377 -2
    endloop
  endfacet
  facet normal 0 0 -1
    outer loop
      vertex 1.3484 6.11549 -2
      vertex 5 10 -2
      vertex 1.41578 6.02862 -2
    endloop
  endfacet
  facet normal 0 0 -1
    outer loop
      vertex 1.27569 6.19796 -2
      vertex 5 10 -2
      vertex 1.3484 6.11549 -2
    endloop
  endfacet
  facet normal 0 0 -1
    outer loop
      vertex 1.19796 6.27569 -2
      vertex 5 10 -2
      vertex 1.27569 6.19796 -2
    endloop
  endfacet
  facet normal 0 0 -1
    outer loop
      vertex 1.11549 6.3484 -2
      vertex 5 10 -2
      vertex 1.19796 6.27569 -2
    endloop
  endfacet
  facet normal 0 0 -1
    outer loop
      vertex 1.02862 6.41578 -2
      vertex 5 10 -2
      vertex 1.11549 6.3484 -2
    endloop
  endfacet
  facet normal 0 0 -1
    outer loop
      vertex 0.937696 6.47757 -2
      vertex 5 10 -2
      vertex 1.02862 6.41578 -2
    endloop
  endfacet
  facet normal 0 0 -1
    outer loop
      vertex 0.843068 6.53354 -2
      vertex 5 10 -2
      vertex 0.937696 6.47757 -2
    endloop
  endfacet
  facet normal 0 0 -1
    outer loop
      vertex 0.745113 6.58345 -2
      vertex 5 10 -2
      vertex 0.843068 6.53354 -2
    endloop
  endfacet
  facet normal 0 0 -1
    outer loop
      vertex 0.644217 6.62711 -2
      vertex 5 10 -2
      vertex 0.745113 6.58345 -2
    endloop
  endfacet
  facet normal 0 0 -1
    outer loop
      vertex 0.540779 6.66435 -2
      vertex 5 10 -2
      vertex 0.644217 6.62711 -2
    endloop
  endfacet
  facet normal 0 0 -1
    outer loop
      vertex 0.435206 6.69502 -2
      vertex 5 10 -2
      vertex 0.540779 6.66435 -2
    endloop
  endfacet
  facet normal 0 0 -1
    outer loop
      vertex 0.327917 6.719 -2
      vertex 5 10 -2
      vertex 0.435206 6.69502 -2
    endloop
  endfacet
  facet normal 0 0 -1
    outer loop
      vertex 0.219333 6.7362 -2
      vertex 5 10 -2
      vertex 0.327917 6.719 -2
    endloop
  endfacet
  facet normal 0 0 -1
    outer loop
      vertex 0.109883 6.74655 -2
      vertex 5 10 -2
      vertex 0.219333 6.7362 -2
    endloop
  endfacet
  facet normal 0 0 -1
    outer loop
      vertex 0 6.75 -2
      vertex 5 10 -2
      vertex 0.109883 6.74655 -2
    endloop
  endfacet
  facet normal 0 0 -1
    outer loop
      vertex -5 10 -2
      vertex 0 6.75 -2
      vertex -0.109883 6.74655 -2
    endloop
  endfacet
  facet normal 0 0 -1
    outer loop
      vertex -5 10 -2
      vertex -0.109883 6.74655 -2
      vertex -0.219333 6.7362 -2
    endloop
  endfacet
  facet normal 0 0 -1
    outer loop
      vertex -5 10 -2
      vertex -0.219333 6.7362 -2
      vertex -0.327917 6.719 -2
    endloop
  endfacet
  facet normal 0 0 -1
    outer loop
      vertex -5 10 -2
      vertex -0.327917 6.719 -2
      vertex -0.435206 6.69502 -2
    endloop
  endfacet
  facet normal 0 0 -1
    outer loop
      vertex -5 10 -2
      vertex -0.435206 6.69502 -2
      vertex -0.540779 6.66435 -2
    endloop
  endfacet
  facet normal 0 0 -1
    outer loop
      vertex -5 10 -2
      vertex -0.540779 6.66435 -2
      vertex -0.644217 6.62711 -2
    endloop
  endfacet
  facet normal 0 0 -1
    outer loop
      vertex -5 10 -2
      vertex -0.644217 6.62711 -2
      vertex -0.745113 6.58345 -2
    endloop
  endfacet
  facet normal 0 0 -1
    outer loop
      vertex -5 10 -2
      vertex -0.745113 6.58345 -2
      vertex -0.843068 6.53354 -2
    endloop
  endfacet
  facet normal 0 0 -1
    outer loop
      vertex -5 10 -2
      vertex -0.843068 6.53354 -2
      vertex -0.937696 6.47757 -2
    endloop
  endfacet
  facet normal 0 0 -1
    outer loop
      vertex -1.74655 4.89012 -2
      vertex -5 10 -2
      vertex -1.75 5 -2
    endloop
  endfacet
  facet normal 0 0 -1
    outer loop
      vertex -1.75 5 -2
      vertex -5 10 -2
      vertex -1.74655 5.10988 -2
    endloop
  endfacet
  facet normal 0 0 -1
    outer loop
      vertex -1.74655 5.10988 -2
      vertex -5 10 -2
      vertex -1.7362 5.21933 -2
    endloop
  endfacet
  facet normal 0 0 -1
    outer loop
      vertex 0 6.75 -2
      vertex -5 10 -2
      vertex 5 10 -2
    endloop
  endfacet
  facet normal 0 0 -1
    outer loop
      vertex -1.02862 6.41578 -2
      vertex -5 10 -2
      vertex -0.937696 6.47757 -2
    endloop
  endfacet
  facet normal 0 0 -1
    outer loop
      vertex -1.11549 6.3484 -2
      vertex -5 10 -2
      vertex -1.02862 6.41578 -2
    endloop
  endfacet
  facet normal 0 0 -1
    outer loop
      vertex -1.19796 6.27569 -2
      vertex -5 10 -2
      vertex -1.11549 6.3484 -2
    endloop
  endfacet
  facet normal 0 0 -1
    outer loop
      vertex -1.27569 6.19796 -2
      vertex -5 10 -2
      vertex -1.19796 6.27569 -2
    endloop
  endfacet
  facet normal 0 0 -1
    outer loop
      vertex -1.3484 6.11549 -2
      vertex -5 10 -2
      vertex -1.27569 6.19796 -2
    endloop
  endfacet
  facet normal 0 0 -1
    outer loop
      vertex -1.41578 6.02862 -2
      vertex -5 10 -2
      vertex -1.3484 6.11549 -2
    endloop
  endfacet
  facet normal 0 0 -1
    outer loop
      vertex -1.47757 5.9377 -2
      vertex -5 10 -2
      vertex -1.41578 6.02862 -2
    endloop
  endfacet
  facet normal 0 0 -1
    outer loop
      vertex -1.53354 5.84307 -2
      vertex -5 10 -2
      vertex -1.47757 5.9377 -2
    endloop
  endfacet
  facet normal 0 0 -1
    outer loop
      vertex -1.58345 5.74511 -2
      vertex -5 10 -2
      vertex -1.53354 5.84307 -2
    endloop
  endfacet
  facet normal 0 0 -1
    outer loop
      vertex -1.62711 5.64422 -2
      vertex -5 10 -2
      vertex -1.58345 5.74511 -2
    endloop
  endfacet
  facet normal 0 0 -1
    outer loop
      vertex -1.66435 5.54078 -2
      vertex -5 10 -2
      vertex -1.62711 5.64422 -2
    endloop
  endfacet
  facet normal 0 0 -1
    outer loop
      vertex -1.69502 5.43521 -2
      vertex -5 10 -2
      vertex -1.66435 5.54078 -2
    endloop
  endfacet
  facet normal 0 0 -1
    outer loop
      vertex -1.719 5.32792 -2
      vertex -5 10 -2
      vertex -1.69502 5.43521 -2
    endloop
  endfacet
  facet normal 0 0 -1
    outer loop
      vertex -1.7362 5.21933 -2
      vertex -5 10 -2
      vertex -1.719 5.32792 -2
    endloop
  endfacet
  facet normal 0 -1 0
    outer loop
      vertex -5 -10 -2
      vertex 5 -10 2
      vertex -5 -10 2
    endloop
  endfacet
  facet normal 0 -1 -0
    outer loop
      vertex 5 -10 2
      vertex -5 -10 -2
      vertex 5 -10 -2
    endloop
  endfacet
  facet normal 0 0 1
    outer loop
      vertex 3.25 5 -1.5
      vertex 1.74655 5.10988 -1.5
      vertex 1.75 5 -1.5
    endloop
  endfacet
  facet normal 0 0 1
    outer loop
      vertex 3.25 5 -1.5
      vertex 1.7362 5.21933 -1.5
      vertex 1.74655 5.10988 -1.5
    endloop
  endfacet
  facet normal 0 0 1
    outer loop
      vertex 3.25 5 -1.5
      vertex 1.719 5.32792 -1.5
      vertex 1.7362 5.21933 -1.5
    endloop
  endfacet
  facet normal 0 0 1
    outer loop
      vertex 3.25 5 -1.5
      vertex 1.69502 5.43521 -1.5
      vertex 1.719 5.32792 -1.5
    endloop
  endfacet
  facet normal 0 0 1
    outer loop
      vertex 3.25 5 -1.5
      vertex 1.66435 5.54078 -1.5
      vertex 1.69502 5.43521 -1.5
    endloop
  endfacet
  facet normal 0 0 1
    outer loop
      vertex 3.25 5 -1.5
      vertex 1.62711 5.64422 -1.5
      vertex 1.66435 5.54078 -1.5
    endloop
  endfacet
  facet normal -0 0 1
    outer loop
      vertex 1.53354 5.84307 -1.5
      vertex 3.25 5 -1.5
      vertex 1.625 7.81458 -1.5
    endloop
  endfacet
  facet normal 0 0 1
    outer loop
      vertex 3.25 5 -1.5
      vertex 1.58345 5.74511 -1.5
      vertex 1.62711 5.64422 -1.5
    endloop
  endfacet
  facet normal 0 0 1
    outer loop
      vertex 3.25 5 -1.5
      vertex 1.53354 5.84307 -1.5
      vertex 1.58345 5.74511 -1.5
    endloop
  endfacet
  facet normal 0 0 1
    outer loop
      vertex 1.625 7.81458 -1.5
      vertex 1.47757 5.9377 -1.5
      vertex 1.53354 5.84307 -1.5
    endloop
  endfacet
  facet normal 0 0 1
    outer loop
      vertex 1.625 7.81458 -1.5
      vertex 1.41578 6.02862 -1.5
      vertex 1.47757 5.9377 -1.5
    endloop
  endfacet
  facet normal 0 0 1
    outer loop
      vertex 1.625 7.81458 -1.5
      vertex 1.3484 6.11549 -1.5
      vertex 1.41578 6.02862 -1.5
    endloop
  endfacet
  facet normal 0 0 1
    outer loop
      vertex 1.625 7.81458 -1.5
      vertex 1.27569 6.19796 -1.5
      vertex 1.3484 6.11549 -1.5
    endloop
  endfacet
  facet normal 0 0 1
    outer loop
      vertex 1.625 7.81458 -1.5
      vertex 1.19796 6.27569 -1.5
      vertex 1.27569 6.19796 -1.5
    endloop
  endfacet
  facet normal 0 0 1
    outer loop
      vertex 1.625 7.81458 -1.5
      vertex 1.11549 6.3484 -1.5
      vertex 1.19796 6.27569 -1.5
    endloop
  endfacet
  facet normal 0 0 1
    outer loop
      vertex 1.625 7.81458 -1.5
      vertex 1.02862 6.41578 -1.5
      vertex 1.11549 6.3484 -1.5
    endloop
  endfacet
  facet normal 0 0 1
    outer loop
      vertex 1.625 7.81458 -1.5
      vertex 0.937696 6.47757 -1.5
      vertex 1.02862 6.41578 -1.5
    endloop
  endfacet
  facet normal 0 0 1
    outer loop
      vertex 1.625 7.81458 -1.5
      vertex 0.843068 6.53354 -1.5
      vertex 0.937696 6.47757 -1.5
    endloop
  endfacet
  facet normal 0 0 1
    outer loop
      vertex 1.625 7.81458 -1.5
      vertex 0.745113 6.58345 -1.5
      vertex 0.843068 6.53354 -1.5
    endloop
  endfacet
  facet normal 0 0 1
    outer loop
      vertex 1.625 7.81458 -1.5
      vertex 0.644217 6.62711 -1.5
      vertex 0.745113 6.58345 -1.5
    endloop
  endfacet
  facet normal 0 0 1
    outer loop
      vertex 1.625 7.81458 -1.5
      vertex 0.540779 6.66435 -1.5
      vertex 0.644217 6.62711 -1.5
    endloop
  endfacet
  facet normal 0 0 1
    outer loop
      vertex 1.625 7.81458 -1.5
      vertex 0.435206 6.69502 -1.5
      vertex 0.540779 6.66435 -1.5
    endloop
  endfacet
  facet normal 0 0 1
    outer loop
      vertex 1.625 7.81458 -1.5
      vertex 0.327917 6.719 -1.5
      vertex 0.435206 6.69502 -1.5
    endloop
  endfacet
  facet normal 0 0 1
    outer loop
      vertex 1.625 7.81458 -1.5
      vertex 0.219333 6.7362 -1.5
      vertex 0.327917 6.719 -1.5
    endloop
  endfacet
  facet normal 0 0 1
    outer loop
      vertex 1.625 7.81458 -1.5
      vertex 0.109883 6.74655 -1.5
      vertex 0.219333 6.7362 -1.5
    endloop
  endfacet
  facet normal 0 0 1
    outer loop
      vertex 1.625 7.81458 -1.5
      vertex 0 6.75 -1.5
      vertex 0.109883 6.74655 -1.5
    endloop
  endfacet
  facet normal -0 0 1
    outer loop
      vertex -1.625 7.81458 -1.5
      vertex 0 6.75 -1.5
      vertex 1.625 7.81458 -1.5
    endloop
  endfacet
  facet normal 0 0 1
    outer loop
      vertex 0 6.75 -1.5
      vertex -1.625 7.81458 -1.5
      vertex -0.109883 6.74655 -1.5
    endloop
  endfacet
  facet normal 0 0 1
    outer loop
      vertex -0.109883 6.74655 -1.5
      vertex -1.625 7.81458 -1.5
      vertex -0.219333 6.7362 -1.5
    endloop
  endfacet
  facet normal 0 0 1
    outer loop
      vertex -0.219333 6.7362 -1.5
      vertex -1.625 7.81458 -1.5
      vertex -0.327917 6.719 -1.5
    endloop
  endfacet
  facet normal 0 0 1
    outer loop
      vertex -0.327917 6.719 -1.5
      vertex -1.625 7.81458 -1.5
      vertex -0.435206 6.69502 -1.5
    endloop
  endfacet
  facet normal 0 0 1
    outer loop
      vertex -0.435206 6.69502 -1.5
      vertex -1.625 7.81458 -1.5
      vertex -0.540779 6.66435 -1.5
    endloop
  endfacet
  facet normal 0 0 1
    outer loop
      vertex -0.540779 6.66435 -1.5
      vertex -1.625 7.81458 -1.5
      vertex -0.644217 6.62711 -1.5
    endloop
  endfacet
  facet normal 0 0 1
    outer loop
      vertex -0.644217 6.62711 -1.5
      vertex -1.625 7.81458 -1.5
      vertex -0.745113 6.58345 -1.5
    endloop
  endfacet
  facet normal 0 0 1
    outer loop
      vertex -0.745113 6.58345 -1.5
      vertex -1.625 7.81458 -1.5
      vertex -0.843068 6.53354 -1.5
    endloop
  endfacet
  facet normal 0 0 1
    outer loop
      vertex -1.625 7.81458 -1.5
      vertex -0.937696 6.47757 -1.5
      vertex -0.843068 6.53354 -1.5
    endloop
  endfacet
  facet normal 0 0 1
    outer loop
      vertex -1.625 7.81458 -1.5
      vertex -1.02862 6.41578 -1.5
      vertex -0.937696 6.47757 -1.5
    endloop
  endfacet
  facet normal 0 0 1
    outer loop
      vertex -1.625 7.81458 -1.5
      vertex -1.11549 6.3484 -1.5
      vertex -1.02862 6.41578 -1.5
    endloop
  endfacet
  facet normal 0 0 1
    outer loop
      vertex -1.625 7.81458 -1.5
      vertex -1.19796 6.27569 -1.5
      vertex -1.11549 6.3484 -1.5
    endloop
  endfacet
  facet normal 0 0 1
    outer loop
      vertex -1.625 7.81458 -1.5
      vertex -1.27569 6.19796 -1.5
      vertex -1.19796 6.27569 -1.5
    endloop
  endfacet
  facet normal 0 0 1
    outer loop
      vertex -1.625 7.81458 -1.5
      vertex -1.3484 6.11549 -1.5
      vertex -1.27569 6.19796 -1.5
    endloop
  endfacet
  facet normal 0 0 1
    outer loop
      vertex -1.625 7.81458 -1.5
      vertex -1.41578 6.02862 -1.5
      vertex -1.3484 6.11549 -1.5
    endloop
  endfacet
  facet normal 0 0 1
    outer loop
      vertex -1.625 7.81458 -1.5
      vertex -1.47757 5.9377 -1.5
      vertex -1.41578 6.02862 -1.5
    endloop
  endfacet
  facet normal 0 0 1
    outer loop
      vertex -1.625 7.81458 -1.5
      vertex -1.53354 5.84307 -1.5
      vertex -1.47757 5.9377 -1.5
    endloop
  endfacet
  facet normal 0 0 1
    outer loop
      vertex -3.25 5 -1.5
      vertex -1.53354 5.84307 -1.5
      vertex -1.625 7.81458 -1.5
    endloop
  endfacet
  facet normal 0 0 1
    outer loop
      vertex -1.53354 5.84307 -1.5
      vertex -3.25 5 -1.5
      vertex -1.58345 5.74511 -1.5
    endloop
  endfacet
  facet normal 0 0 1
    outer loop
      vertex -1.58345 5.74511 -1.5
      vertex -3.25 5 -1.5
      vertex -1.62711 5.64422 -1.5
    endloop
  endfacet
  facet normal 0 0 1
    outer loop
      vertex -1.62711 5.64422 -1.5
      vertex -3.25 5 -1.5
      vertex -1.66435 5.54078 -1.5
    endloop
  endfacet
  facet normal 0 0 1
    outer loop
      vertex -1.66435 5.54078 -1.5
      vertex -3.25 5 -1.5
      vertex -1.69502 5.43521 -1.5
    endloop
  endfacet
  facet normal 0 0 1
    outer loop
      vertex -1.69502 5.43521 -1.5
      vertex -3.25 5 -1.5
      vertex -1.719 5.32792 -1.5
    endloop
  endfacet
  facet normal 0 0 1
    outer loop
      vertex -1.719 5.32792 -1.5
      vertex -3.25 5 -1.5
      vertex -1.7362 5.21933 -1.5
    endloop
  endfacet
  facet normal 0 0 1
    outer loop
      vertex -1.74655 5.10988 -1.5
      vertex -3.25 5 -1.5
      vertex -1.75 5 -1.5
    endloop
  endfacet
  facet normal 0 0 1
    outer loop
      vertex -1.7362 5.21933 -1.5
      vertex -3.25 5 -1.5
      vertex -1.74655 5.10988 -1.5
    endloop
  endfacet
  facet normal 0 0 1
    outer loop
      vertex 1.74655 4.89012 -1.5
      vertex 3.25 5 -1.5
      vertex 1.75 5 -1.5
    endloop
  endfacet
  facet normal 0 0 1
    outer loop
      vertex 1.7362 4.78067 -1.5
      vertex 3.25 5 -1.5
      vertex 1.74655 4.89012 -1.5
    endloop
  endfacet
  facet normal 0 0 1
    outer loop
      vertex 1.719 4.67208 -1.5
      vertex 3.25 5 -1.5
      vertex 1.7362 4.78067 -1.5
    endloop
  endfacet
  facet normal 0 0 1
    outer loop
      vertex 1.69502 4.56479 -1.5
      vertex 3.25 5 -1.5
      vertex 1.719 4.67208 -1.5
    endloop
  endfacet
  facet normal 0 0 1
    outer loop
      vertex 1.66435 4.45922 -1.5
      vertex 3.25 5 -1.5
      vertex 1.69502 4.56479 -1.5
    endloop
  endfacet
  facet normal 0 0 1
    outer loop
      vertex 1.62711 4.35578 -1.5
      vertex 3.25 5 -1.5
      vertex 1.66435 4.45922 -1.5
    endloop
  endfacet
  facet normal 0 0 1
    outer loop
      vertex 1.58345 4.25489 -1.5
      vertex 3.25 5 -1.5
      vertex 1.62711 4.35578 -1.5
    endloop
  endfacet
  facet normal 0 0 1
    outer loop
      vertex 1.53354 4.15693 -1.5
      vertex 3.25 5 -1.5
      vertex 1.58345 4.25489 -1.5
    endloop
  endfacet
  facet normal 0 0 1
    outer loop
      vertex 3.25 5 -1.5
      vertex 1.53354 4.15693 -1.5
      vertex 1.625 2.18542 -1.5
    endloop
  endfacet
  facet normal -0 0 1
    outer loop
      vertex 1.47757 4.0623 -1.5
      vertex 1.625 2.18542 -1.5
      vertex 1.53354 4.15693 -1.5
    endloop
  endfacet
  facet normal -0 0 1
    outer loop
      vertex 1.41578 3.97138 -1.5
      vertex 1.625 2.18542 -1.5
      vertex 1.47757 4.0623 -1.5
    endloop
  endfacet
  facet normal -0 0 1
    outer loop
      vertex 1.3484 3.88451 -1.5
      vertex 1.625 2.18542 -1.5
      vertex 1.41578 3.97138 -1.5
    endloop
  endfacet
  facet normal -0 0 1
    outer loop
      vertex 1.27569 3.80204 -1.5
      vertex 1.625 2.18542 -1.5
      vertex 1.3484 3.88451 -1.5
    endloop
  endfacet
  facet normal -0 0 1
    outer loop
      vertex 1.19796 3.7243 -1.5
      vertex 1.625 2.18542 -1.5
      vertex 1.27569 3.80204 -1.5
    endloop
  endfacet
  facet normal -0 0 1
    outer loop
      vertex 1.11549 3.6516 -1.5
      vertex 1.625 2.18542 -1.5
      vertex 1.19796 3.7243 -1.5
    endloop
  endfacet
  facet normal -0 0 1
    outer loop
      vertex 1.02862 3.58422 -1.5
      vertex 1.625 2.18542 -1.5
      vertex 1.11549 3.6516 -1.5
    endloop
  endfacet
  facet normal -0 0 1
    outer loop
      vertex 0.937696 3.52243 -1.5
      vertex 1.625 2.18542 -1.5
      vertex 1.02862 3.58422 -1.5
    endloop
  endfacet
  facet normal -0 0 1
    outer loop
      vertex 0.843068 3.46646 -1.5
      vertex 1.625 2.18542 -1.5
      vertex 0.937696 3.52243 -1.5
    endloop
  endfacet
  facet normal -0 0 1
    outer loop
      vertex 0.745113 3.41655 -1.5
      vertex 1.625 2.18542 -1.5
      vertex 0.843068 3.46646 -1.5
    endloop
  endfacet
  facet normal -0 0 1
    outer loop
      vertex 0.644217 3.37289 -1.5
      vertex 1.625 2.18542 -1.5
      vertex 0.745113 3.41655 -1.5
    endloop
  endfacet
  facet normal -0 0 1
    outer loop
      vertex 0.540779 3.33565 -1.5
      vertex 1.625 2.18542 -1.5
      vertex 0.644217 3.37289 -1.5
    endloop
  endfacet
  facet normal -0 0 1
    outer loop
      vertex 0.435206 3.30498 -1.5
      vertex 1.625 2.18542 -1.5
      vertex 0.540779 3.33565 -1.5
    endloop
  endfacet
  facet normal -0 0 1
    outer loop
      vertex 0.327917 3.281 -1.5
      vertex 1.625 2.18542 -1.5
      vertex 0.435206 3.30498 -1.5
    endloop
  endfacet
  facet normal -0 0 1
    outer loop
      vertex 0.219333 3.2638 -1.5
      vertex 1.625 2.18542 -1.5
      vertex 0.327917 3.281 -1.5
    endloop
  endfacet
  facet normal -0 0 1
    outer loop
      vertex 0.109883 3.25345 -1.5
      vertex 1.625 2.18542 -1.5
      vertex 0.219333 3.2638 -1.5
    endloop
  endfacet
  facet normal -0 0 1
    outer loop
      vertex 0 3.25 -1.5
      vertex 1.625 2.18542 -1.5
      vertex 0.109883 3.25345 -1.5
    endloop
  endfacet
  facet normal 0 0 1
    outer loop
      vertex -1.625 2.18542 -1.5
      vertex 0 3.25 -1.5
      vertex -0.109883 3.25345 -1.5
    endloop
  endfacet
  facet normal 0 0 1
    outer loop
      vertex -1.625 2.18542 -1.5
      vertex -0.109883 3.25345 -1.5
      vertex -0.219333 3.2638 -1.5
    endloop
  endfacet
  facet normal 0 0 1
    outer loop
      vertex -1.625 2.18542 -1.5
      vertex -0.219333 3.2638 -1.5
      vertex -0.327917 3.281 -1.5
    endloop
  endfacet
  facet normal 0 0 1
    outer loop
      vertex -1.625 2.18542 -1.5
      vertex -0.327917 3.281 -1.5
      vertex -0.435206 3.30498 -1.5
    endloop
  endfacet
  facet normal 0 0 1
    outer loop
      vertex -1.625 2.18542 -1.5
      vertex -0.435206 3.30498 -1.5
      vertex -0.540779 3.33565 -1.5
    endloop
  endfacet
  facet normal 0 0 1
    outer loop
      vertex -1.625 2.18542 -1.5
      vertex -0.540779 3.33565 -1.5
      vertex -0.644217 3.37289 -1.5
    endloop
  endfacet
  facet normal 0 0 1
    outer loop
      vertex -1.625 2.18542 -1.5
      vertex -0.644217 3.37289 -1.5
      vertex -0.745113 3.41655 -1.5
    endloop
  endfacet
  facet normal 0 0 1
    outer loop
      vertex -1.625 2.18542 -1.5
      vertex -0.745113 3.41655 -1.5
      vertex -0.843068 3.46646 -1.5
    endloop
  endfacet
  facet normal 0 0 1
    outer loop
      vertex 0 3.25 -1.5
      vertex -1.625 2.18542 -1.5
      vertex 1.625 2.18542 -1.5
    endloop
  endfacet
  facet normal 0 0 1
    outer loop
      vertex -0.937696 3.52243 -1.5
      vertex -1.625 2.18542 -1.5
      vertex -0.843068 3.46646 -1.5
    endloop
  endfacet
  facet normal 0 0 1
    outer loop
      vertex -1.02862 3.58422 -1.5
      vertex -1.625 2.18542 -1.5
      vertex -0.937696 3.52243 -1.5
    endloop
  endfacet
  facet normal 0 0 1
    outer loop
      vertex -1.11549 3.6516 -1.5
      vertex -1.625 2.18542 -1.5
      vertex -1.02862 3.58422 -1.5
    endloop
  endfacet
  facet normal 0 0 1
    outer loop
      vertex -1.19796 3.7243 -1.5
      vertex -1.625 2.18542 -1.5
      vertex -1.11549 3.6516 -1.5
    endloop
  endfacet
  facet normal 0 0 1
    outer loop
      vertex -1.27569 3.80204 -1.5
      vertex -1.625 2.18542 -1.5
      vertex -1.19796 3.7243 -1.5
    endloop
  endfacet
  facet normal 0 0 1
    outer loop
      vertex -1.3484 3.88451 -1.5
      vertex -1.625 2.18542 -1.5
      vertex -1.27569 3.80204 -1.5
    endloop
  endfacet
  facet normal 0 0 1
    outer loop
      vertex -1.41578 3.97138 -1.5
      vertex -1.625 2.18542 -1.5
      vertex -1.3484 3.88451 -1.5
    endloop
  endfacet
  facet normal 0 0 1
    outer loop
      vertex -1.47757 4.0623 -1.5
      vertex -1.625 2.18542 -1.5
      vertex -1.41578 3.97138 -1.5
    endloop
  endfacet
  facet normal 0 0 1
    outer loop
      vertex -1.53354 4.15693 -1.5
      vertex -1.625 2.18542 -1.5
      vertex -1.47757 4.0623 -1.5
    endloop
  endfacet
  facet normal 0 0 1
    outer loop
      vertex -3.25 5 -1.5
      vertex -1.53354 4.15693 -1.5
      vertex -1.58345 4.25489 -1.5
    endloop
  endfacet
  facet normal 0 0 1
    outer loop
      vertex -3.25 5 -1.5
      vertex -1.58345 4.25489 -1.5
      vertex -1.62711 4.35578 -1.5
    endloop
  endfacet
  facet normal 0 0 1
    outer loop
      vertex -3.25 5 -1.5
      vertex -1.62711 4.35578 -1.5
      vertex -1.66435 4.45922 -1.5
    endloop
  endfacet
  facet normal 0 0 1
    outer loop
      vertex -3.25 5 -1.5
      vertex -1.66435 4.45922 -1.5
      vertex -1.69502 4.56479 -1.5
    endloop
  endfacet
  facet normal 0 0 1
    outer loop
      vertex -3.25 5 -1.5
      vertex -1.69502 4.56479 -1.5
      vertex -1.719 4.67208 -1.5
    endloop
  endfacet
  facet normal 0 0 1
    outer loop
      vertex -3.25 5 -1.5
      vertex -1.719 4.67208 -1.5
      vertex -1.7362 4.78067 -1.5
    endloop
  endfacet
  facet normal 0 0 1
    outer loop
      vertex -3.25 5 -1.5
      vertex -1.7362 4.78067 -1.5
      vertex -1.74655 4.89012 -1.5
    endloop
  endfacet
  facet normal 0 0 1
    outer loop
      vertex -1.53354 4.15693 -1.5
      vertex -3.25 5 -1.5
      vertex -1.625 2.18542 -1.5
    endloop
  endfacet
  facet normal -0 0 1
    outer loop
      vertex -3.25 5 -1.5
      vertex -1.74655 4.89012 -1.5
      vertex -1.75 5 -1.5
    endloop
  endfacet
  facet normal -0.866025 -0.5 0
    outer loop
      vertex 3.25 5 -1.5
      vertex 1.625 7.81458 2
      vertex 1.625 7.81458 -1.5
    endloop
  endfacet
  facet normal -0.866025 -0.5 0
    outer loop
      vertex 1.625 7.81458 2
      vertex 3.25 5 -1.5
      vertex 3.25 5 2
    endloop
  endfacet
  facet normal 0 1 -0
    outer loop
      vertex 1.625 2.18542 -1.5
      vertex -1.625 2.18542 2
      vertex 1.625 2.18542 2
    endloop
  endfacet
  facet normal 0 1 0
    outer loop
      vertex -1.625 2.18542 2
      vertex 1.625 2.18542 -1.5
      vertex -1.625 2.18542 -1.5
    endloop
  endfacet
  facet normal 0.866025 -0.5 0
    outer loop
      vertex -3.25 5 2
      vertex -1.625 7.81458 -1.5
      vertex -1.625 7.81458 2
    endloop
  endfacet
  facet normal 0.866025 -0.5 0
    outer loop
      vertex -1.625 7.81458 -1.5
      vertex -3.25 5 2
      vertex -3.25 5 -1.5
    endloop
  endfacet
  facet normal 0 -1 0
    outer loop
      vertex -1.625 7.81458 -1.5
      vertex 1.625 7.81458 2
      vertex -1.625 7.81458 2
    endloop
  endfacet
  facet normal 0 -1 -0
    outer loop
      vertex 1.625 7.81458 2
      vertex -1.625 7.81458 -1.5
      vertex 1.625 7.81458 -1.5
    endloop
  endfacet
  facet normal 0.866025 0.5 0
    outer loop
      vertex -1.625 2.18542 2
      vertex -3.25 5 -1.5
      vertex -3.25 5 2
    endloop
  endfacet
  facet normal 0.866025 0.5 0
    outer loop
      vertex -3.25 5 -1.5
      vertex -1.625 2.18542 2
      vertex -1.625 2.18542 -1.5
    endloop
  endfacet
  facet normal -0.866025 0.5 0
    outer loop
      vertex 1.625 2.18542 -1.5
      vertex 3.25 5 2
      vertex 3.25 5 -1.5
    endloop
  endfacet
  facet normal -0.866025 0.5 0
    outer loop
      vertex 3.25 5 2
      vertex 1.625 2.18542 -1.5
      vertex 1.625 2.18542 2
    endloop
  endfacet
  facet normal -0.66131 -0.750113 0
    outer loop
      vertex 1.11549 6.3484 -2
      vertex 1.19796 6.27569 -1.5
      vertex 1.11549 6.3484 -1.5
    endloop
  endfacet
  facet normal -0.66131 -0.750113 -0
    outer loop
      vertex 1.19796 6.27569 -1.5
      vertex 1.11549 6.3484 -2
      vertex 1.19796 6.27569 -2
    endloop
  endfacet
  facet normal 0.397152 -0.917753 0
    outer loop
      vertex -0.745113 6.58345 -2
      vertex -0.644217 6.62711 -1.5
      vertex -0.745113 6.58345 -1.5
    endloop
  endfacet
  facet normal 0.397152 -0.917753 0
    outer loop
      vertex -0.644217 6.62711 -1.5
      vertex -0.745113 6.58345 -2
      vertex -0.644217 6.62711 -2
    endloop
  endfacet
  facet normal 0.917753 -0.397152 0
    outer loop
      vertex -1.62711 5.64422 -1.5
      vertex -1.58345 5.74511 -2
      vertex -1.58345 5.74511 -1.5
    endloop
  endfacet
  facet normal 0.917753 -0.397152 0
    outer loop
      vertex -1.58345 5.74511 -2
      vertex -1.62711 5.64422 -1.5
      vertex -1.62711 5.64422 -2
    endloop
  endfacet
  facet normal -0.917753 -0.397152 0
    outer loop
      vertex 1.62711 5.64422 -2
      vertex 1.58345 5.74511 -1.5
      vertex 1.58345 5.74511 -2
    endloop
  endfacet
  facet normal -0.917753 -0.397152 0
    outer loop
      vertex 1.58345 5.74511 -1.5
      vertex 1.62711 5.64422 -2
      vertex 1.62711 5.64422 -1.5
    endloop
  endfacet
  facet normal -0.891006 -0.453991 0
    outer loop
      vertex 1.58345 5.74511 -2
      vertex 1.53354 5.84307 -1.5
      vertex 1.53354 5.84307 -2
    endloop
  endfacet
  facet normal -0.891006 -0.453991 0
    outer loop
      vertex 1.53354 5.84307 -1.5
      vertex 1.58345 5.74511 -2
      vertex 1.58345 5.74511 -1.5
    endloop
  endfacet
  facet normal -0.397152 -0.917753 0
    outer loop
      vertex 0.644217 6.62711 -2
      vertex 0.745113 6.58345 -1.5
      vertex 0.644217 6.62711 -1.5
    endloop
  endfacet
  facet normal -0.397152 -0.917753 -0
    outer loop
      vertex 0.745113 6.58345 -1.5
      vertex 0.644217 6.62711 -2
      vertex 0.745113 6.58345 -2
    endloop
  endfacet
  facet normal -0.0941119 -0.995562 0
    outer loop
      vertex 0.109883 6.74655 -2
      vertex 0.219333 6.7362 -1.5
      vertex 0.109883 6.74655 -1.5
    endloop
  endfacet
  facet normal -0.0941119 -0.995562 -0
    outer loop
      vertex 0.219333 6.7362 -1.5
      vertex 0.109883 6.74655 -2
      vertex 0.219333 6.7362 -2
    endloop
  endfacet
  facet normal 0.995562 -0.0941119 0
    outer loop
      vertex -1.74655 5.10988 -1.5
      vertex -1.7362 5.21933 -2
      vertex -1.7362 5.21933 -1.5
    endloop
  endfacet
  facet normal 0.995562 -0.0941119 0
    outer loop
      vertex -1.7362 5.21933 -2
      vertex -1.74655 5.10988 -1.5
      vertex -1.74655 5.10988 -2
    endloop
  endfacet
  facet normal 0.750113 -0.66131 0
    outer loop
      vertex -1.3484 6.11549 -1.5
      vertex -1.27569 6.19796 -2
      vertex -1.27569 6.19796 -1.5
    endloop
  endfacet
  facet normal 0.750113 -0.66131 0
    outer loop
      vertex -1.27569 6.19796 -2
      vertex -1.3484 6.11549 -1.5
      vertex -1.3484 6.11549 -2
    endloop
  endfacet
  facet normal 0.218144 -0.975917 0
    outer loop
      vertex -0.435206 6.69502 -2
      vertex -0.327917 6.719 -1.5
      vertex -0.435206 6.69502 -1.5
    endloop
  endfacet
  facet normal 0.218144 -0.975917 0
    outer loop
      vertex -0.327917 6.719 -1.5
      vertex -0.435206 6.69502 -2
      vertex -0.327917 6.719 -2
    endloop
  endfacet
  facet normal -0.995562 0.0941119 0
    outer loop
      vertex 1.7362 4.78067 -2
      vertex 1.74655 4.89012 -1.5
      vertex 1.74655 4.89012 -2
    endloop
  endfacet
  facet normal -0.995562 0.0941119 0
    outer loop
      vertex 1.74655 4.89012 -1.5
      vertex 1.7362 4.78067 -2
      vertex 1.7362 4.78067 -1.5
    endloop
  endfacet
  facet normal -0.750113 0.66131 0
    outer loop
      vertex 1.27569 3.80204 -2
      vertex 1.3484 3.88451 -1.5
      vertex 1.3484 3.88451 -2
    endloop
  endfacet
  facet normal -0.750113 0.66131 0
    outer loop
      vertex 1.3484 3.88451 -1.5
      vertex 1.27569 3.80204 -2
      vertex 1.27569 3.80204 -1.5
    endloop
  endfacet
  facet normal 0.0941119 0.995562 -0
    outer loop
      vertex -0.109883 3.25345 -2
      vertex -0.219333 3.2638 -1.5
      vertex -0.109883 3.25345 -1.5
    endloop
  endfacet
  facet normal 0.0941119 0.995562 0
    outer loop
      vertex -0.219333 3.2638 -1.5
      vertex -0.109883 3.25345 -2
      vertex -0.219333 3.2638 -2
    endloop
  endfacet
  facet normal 0.66131 0.750113 -0
    outer loop
      vertex -1.11549 3.6516 -2
      vertex -1.19796 3.7243 -1.5
      vertex -1.11549 3.6516 -1.5
    endloop
  endfacet
  facet normal 0.66131 0.750113 0
    outer loop
      vertex -1.19796 3.7243 -1.5
      vertex -1.11549 3.6516 -2
      vertex -1.19796 3.7243 -2
    endloop
  endfacet
  facet normal 0.917753 0.397152 0
    outer loop
      vertex -1.58345 4.25489 -1.5
      vertex -1.62711 4.35578 -2
      vertex -1.62711 4.35578 -1.5
    endloop
  endfacet
  facet normal 0.917753 0.397152 0
    outer loop
      vertex -1.62711 4.35578 -2
      vertex -1.58345 4.25489 -1.5
      vertex -1.58345 4.25489 -2
    endloop
  endfacet
  facet normal 0.790155 0.612907 0
    outer loop
      vertex -1.3484 3.88451 -1.5
      vertex -1.41578 3.97138 -2
      vertex -1.41578 3.97138 -1.5
    endloop
  endfacet
  facet normal 0.790155 0.612907 0
    outer loop
      vertex -1.41578 3.97138 -2
      vertex -1.3484 3.88451 -1.5
      vertex -1.3484 3.88451 -2
    endloop
  endfacet
  facet normal -0.995562 -0.0941119 0
    outer loop
      vertex 1.74655 5.10988 -2
      vertex 1.7362 5.21933 -1.5
      vertex 1.7362 5.21933 -2
    endloop
  endfacet
  facet normal -0.995562 -0.0941119 0
    outer loop
      vertex 1.7362 5.21933 -1.5
      vertex 1.74655 5.10988 -2
      vertex 1.74655 5.10988 -1.5
    endloop
  endfacet
  facet normal -0.987688 -0.156439 0
    outer loop
      vertex 1.7362 5.21933 -2
      vertex 1.719 5.32792 -1.5
      vertex 1.719 5.32792 -2
    endloop
  endfacet
  facet normal -0.987688 -0.156439 0
    outer loop
      vertex 1.719 5.32792 -1.5
      vertex 1.7362 5.21933 -2
      vertex 1.7362 5.21933 -1.5
    endloop
  endfacet
  facet normal -0.827079 -0.562085 0
    outer loop
      vertex 1.47757 5.9377 -2
      vertex 1.41578 6.02862 -1.5
      vertex 1.41578 6.02862 -2
    endloop
  endfacet
  facet normal -0.827079 -0.562085 0
    outer loop
      vertex 1.41578 6.02862 -1.5
      vertex 1.47757 5.9377 -2
      vertex 1.47757 5.9377 -1.5
    endloop
  endfacet
  facet normal -0.860744 -0.509038 0
    outer loop
      vertex 1.53354 5.84307 -2
      vertex 1.47757 5.9377 -1.5
      vertex 1.47757 5.9377 -2
    endloop
  endfacet
  facet normal -0.860744 -0.509038 0
    outer loop
      vertex 1.47757 5.9377 -1.5
      vertex 1.53354 5.84307 -2
      vertex 1.53354 5.84307 -1.5
    endloop
  endfacet
  facet normal -0.707107 -0.707107 0
    outer loop
      vertex 1.27569 6.19796 -2
      vertex 1.19796 6.27569 -1.5
      vertex 1.19796 6.27569 -2
    endloop
  endfacet
  facet normal -0.707107 -0.707107 0
    outer loop
      vertex 1.19796 6.27569 -1.5
      vertex 1.27569 6.19796 -2
      vertex 1.27569 6.19796 -1.5
    endloop
  endfacet
  facet normal -0.612907 -0.790155 0
    outer loop
      vertex 1.02862 6.41578 -2
      vertex 1.11549 6.3484 -1.5
      vertex 1.02862 6.41578 -1.5
    endloop
  endfacet
  facet normal -0.612907 -0.790155 -0
    outer loop
      vertex 1.11549 6.3484 -1.5
      vertex 1.02862 6.41578 -2
      vertex 1.11549 6.3484 -2
    endloop
  endfacet
  facet normal -0.278986 -0.960295 0
    outer loop
      vertex 0.435206 6.69502 -2
      vertex 0.540779 6.66435 -1.5
      vertex 0.435206 6.69502 -1.5
    endloop
  endfacet
  facet normal -0.278986 -0.960295 -0
    outer loop
      vertex 0.540779 6.66435 -1.5
      vertex 0.435206 6.69502 -2
      vertex 0.540779 6.66435 -2
    endloop
  endfacet
  facet normal -0.218144 -0.975917 0
    outer loop
      vertex 0.327917 6.719 -2
      vertex 0.435206 6.69502 -1.5
      vertex 0.327917 6.719 -1.5
    endloop
  endfacet
  facet normal -0.218144 -0.975917 -0
    outer loop
      vertex 0.435206 6.69502 -1.5
      vertex 0.327917 6.719 -2
      vertex 0.435206 6.69502 -2
    endloop
  endfacet
  facet normal 0.999507 0.0314108 0
    outer loop
      vertex -1.74655 4.89012 -1.5
      vertex -1.75 5 -2
      vertex -1.75 5 -1.5
    endloop
  endfacet
  facet normal 0.999507 0.0314108 0
    outer loop
      vertex -1.75 5 -2
      vertex -1.74655 4.89012 -1.5
      vertex -1.74655 4.89012 -2
    endloop
  endfacet
  facet normal 0.960295 -0.278986 0
    outer loop
      vertex -1.69502 5.43521 -1.5
      vertex -1.66435 5.54078 -2
      vertex -1.66435 5.54078 -1.5
    endloop
  endfacet
  facet normal 0.960295 -0.278986 0
    outer loop
      vertex -1.66435 5.54078 -2
      vertex -1.69502 5.43521 -1.5
      vertex -1.69502 5.43521 -2
    endloop
  endfacet
  facet normal 0.975917 -0.218144 0
    outer loop
      vertex -1.719 5.32792 -1.5
      vertex -1.69502 5.43521 -2
      vertex -1.69502 5.43521 -1.5
    endloop
  endfacet
  facet normal 0.975917 -0.218144 0
    outer loop
      vertex -1.69502 5.43521 -2
      vertex -1.719 5.32792 -1.5
      vertex -1.719 5.32792 -2
    endloop
  endfacet
  facet normal 0.891006 -0.453991 0
    outer loop
      vertex -1.58345 5.74511 -1.5
      vertex -1.53354 5.84307 -2
      vertex -1.53354 5.84307 -1.5
    endloop
  endfacet
  facet normal 0.891006 -0.453991 0
    outer loop
      vertex -1.53354 5.84307 -2
      vertex -1.58345 5.74511 -1.5
      vertex -1.58345 5.74511 -2
    endloop
  endfacet
  facet normal 0.827079 -0.562085 0
    outer loop
      vertex -1.47757 5.9377 -1.5
      vertex -1.41578 6.02862 -2
      vertex -1.41578 6.02862 -1.5
    endloop
  endfacet
  facet normal 0.827079 -0.562085 0
    outer loop
      vertex -1.41578 6.02862 -2
      vertex -1.47757 5.9377 -1.5
      vertex -1.47757 5.9377 -2
    endloop
  endfacet
  facet normal 0.338737 -0.940881 0
    outer loop
      vertex -0.644217 6.62711 -2
      vertex -0.540779 6.66435 -1.5
      vertex -0.644217 6.62711 -1.5
    endloop
  endfacet
  facet normal 0.338737 -0.940881 0
    outer loop
      vertex -0.540779 6.66435 -1.5
      vertex -0.644217 6.62711 -2
      vertex -0.540779 6.66435 -2
    endloop
  endfacet
  facet normal 0.0941119 -0.995562 0
    outer loop
      vertex -0.219333 6.7362 -2
      vertex -0.109883 6.74655 -1.5
      vertex -0.219333 6.7362 -1.5
    endloop
  endfacet
  facet normal 0.0941119 -0.995562 0
    outer loop
      vertex -0.109883 6.74655 -1.5
      vertex -0.219333 6.7362 -2
      vertex -0.109883 6.74655 -2
    endloop
  endfacet
  facet normal 0.562085 -0.827079 0
    outer loop
      vertex -1.02862 6.41578 -2
      vertex -0.937696 6.47757 -1.5
      vertex -1.02862 6.41578 -1.5
    endloop
  endfacet
  facet normal 0.562085 -0.827079 0
    outer loop
      vertex -0.937696 6.47757 -1.5
      vertex -1.02862 6.41578 -2
      vertex -0.937696 6.47757 -2
    endloop
  endfacet
  facet normal 0.453991 -0.891006 0
    outer loop
      vertex -0.843068 6.53354 -2
      vertex -0.745113 6.58345 -1.5
      vertex -0.843068 6.53354 -1.5
    endloop
  endfacet
  facet normal 0.453991 -0.891006 0
    outer loop
      vertex -0.745113 6.58345 -1.5
      vertex -0.843068 6.53354 -2
      vertex -0.745113 6.58345 -2
    endloop
  endfacet
  facet normal 0.707107 -0.707107 0
    outer loop
      vertex -1.27569 6.19796 -1.5
      vertex -1.19796 6.27569 -2
      vertex -1.19796 6.27569 -1.5
    endloop
  endfacet
  facet normal 0.707107 -0.707107 0
    outer loop
      vertex -1.19796 6.27569 -2
      vertex -1.27569 6.19796 -1.5
      vertex -1.27569 6.19796 -2
    endloop
  endfacet
  facet normal -0.0941119 0.995562 0
    outer loop
      vertex 0.219333 3.2638 -2
      vertex 0.109883 3.25345 -1.5
      vertex 0.219333 3.2638 -1.5
    endloop
  endfacet
  facet normal -0.0941119 0.995562 0
    outer loop
      vertex 0.109883 3.25345 -1.5
      vertex 0.219333 3.2638 -2
      vertex 0.109883 3.25345 -2
    endloop
  endfacet
  facet normal -0.999507 0.0314108 0
    outer loop
      vertex 1.74655 4.89012 -2
      vertex 1.75 5 -1.5
      vertex 1.75 5 -2
    endloop
  endfacet
  facet normal -0.999507 0.0314108 0
    outer loop
      vertex 1.75 5 -1.5
      vertex 1.74655 4.89012 -2
      vertex 1.74655 4.89012 -1.5
    endloop
  endfacet
  facet normal -0.975917 0.218144 0
    outer loop
      vertex 1.69502 4.56479 -2
      vertex 1.719 4.67208 -1.5
      vertex 1.719 4.67208 -2
    endloop
  endfacet
  facet normal -0.975917 0.218144 0
    outer loop
      vertex 1.719 4.67208 -1.5
      vertex 1.69502 4.56479 -2
      vertex 1.69502 4.56479 -1.5
    endloop
  endfacet
  facet normal -0.156439 0.987688 0
    outer loop
      vertex 0.327917 3.281 -2
      vertex 0.219333 3.2638 -1.5
      vertex 0.327917 3.281 -1.5
    endloop
  endfacet
  facet normal -0.156439 0.987688 0
    outer loop
      vertex 0.219333 3.2638 -1.5
      vertex 0.327917 3.281 -2
      vertex 0.219333 3.2638 -2
    endloop
  endfacet
  facet normal -0.453991 0.891006 0
    outer loop
      vertex 0.843068 3.46646 -2
      vertex 0.745113 3.41655 -1.5
      vertex 0.843068 3.46646 -1.5
    endloop
  endfacet
  facet normal -0.453991 0.891006 0
    outer loop
      vertex 0.745113 3.41655 -1.5
      vertex 0.843068 3.46646 -2
      vertex 0.745113 3.41655 -2
    endloop
  endfacet
  facet normal -0.827079 0.562085 0
    outer loop
      vertex 1.41578 3.97138 -2
      vertex 1.47757 4.0623 -1.5
      vertex 1.47757 4.0623 -2
    endloop
  endfacet
  facet normal -0.827079 0.562085 0
    outer loop
      vertex 1.47757 4.0623 -1.5
      vertex 1.41578 3.97138 -2
      vertex 1.41578 3.97138 -1.5
    endloop
  endfacet
  facet normal -0.0314024 0.999507 0
    outer loop
      vertex 0.109883 3.25345 -2
      vertex 0 3.25 -1.5
      vertex 0.109883 3.25345 -1.5
    endloop
  endfacet
  facet normal -0.0314024 0.999507 0
    outer loop
      vertex 0 3.25 -1.5
      vertex 0.109883 3.25345 -2
      vertex 0 3.25 -2
    endloop
  endfacet
  facet normal 0.218144 0.975917 -0
    outer loop
      vertex -0.327917 3.281 -2
      vertex -0.435206 3.30498 -1.5
      vertex -0.327917 3.281 -1.5
    endloop
  endfacet
  facet normal 0.218144 0.975917 0
    outer loop
      vertex -0.435206 3.30498 -1.5
      vertex -0.327917 3.281 -2
      vertex -0.435206 3.30498 -2
    endloop
  endfacet
  facet normal 0.612907 0.790155 -0
    outer loop
      vertex -1.02862 3.58422 -2
      vertex -1.11549 3.6516 -1.5
      vertex -1.02862 3.58422 -1.5
    endloop
  endfacet
  facet normal 0.612907 0.790155 0
    outer loop
      vertex -1.11549 3.6516 -1.5
      vertex -1.02862 3.58422 -2
      vertex -1.11549 3.6516 -2
    endloop
  endfacet
  facet normal 0.995562 0.0941119 0
    outer loop
      vertex -1.7362 4.78067 -1.5
      vertex -1.74655 4.89012 -2
      vertex -1.74655 4.89012 -1.5
    endloop
  endfacet
  facet normal 0.995562 0.0941119 0
    outer loop
      vertex -1.74655 4.89012 -2
      vertex -1.7362 4.78067 -1.5
      vertex -1.7362 4.78067 -2
    endloop
  endfacet
  facet normal 0.860744 0.509038 0
    outer loop
      vertex -1.47757 4.0623 -1.5
      vertex -1.53354 4.15693 -2
      vertex -1.53354 4.15693 -1.5
    endloop
  endfacet
  facet normal 0.860744 0.509038 0
    outer loop
      vertex -1.53354 4.15693 -2
      vertex -1.47757 4.0623 -1.5
      vertex -1.47757 4.0623 -2
    endloop
  endfacet
  facet normal -0.975917 -0.218144 0
    outer loop
      vertex 1.719 5.32792 -2
      vertex 1.69502 5.43521 -1.5
      vertex 1.69502 5.43521 -2
    endloop
  endfacet
  facet normal -0.975917 -0.218144 0
    outer loop
      vertex 1.69502 5.43521 -1.5
      vertex 1.719 5.32792 -2
      vertex 1.719 5.32792 -1.5
    endloop
  endfacet
  facet normal -0.960295 -0.278986 0
    outer loop
      vertex 1.69502 5.43521 -2
      vertex 1.66435 5.54078 -1.5
      vertex 1.66435 5.54078 -2
    endloop
  endfacet
  facet normal -0.960295 -0.278986 0
    outer loop
      vertex 1.66435 5.54078 -1.5
      vertex 1.69502 5.43521 -2
      vertex 1.69502 5.43521 -1.5
    endloop
  endfacet
  facet normal -0.940881 -0.338737 0
    outer loop
      vertex 1.66435 5.54078 -2
      vertex 1.62711 5.64422 -1.5
      vertex 1.62711 5.64422 -2
    endloop
  endfacet
  facet normal -0.940881 -0.338737 0
    outer loop
      vertex 1.62711 5.64422 -1.5
      vertex 1.66435 5.54078 -2
      vertex 1.66435 5.54078 -1.5
    endloop
  endfacet
  facet normal -0.790155 -0.612907 0
    outer loop
      vertex 1.41578 6.02862 -2
      vertex 1.3484 6.11549 -1.5
      vertex 1.3484 6.11549 -2
    endloop
  endfacet
  facet normal -0.790155 -0.612907 0
    outer loop
      vertex 1.3484 6.11549 -1.5
      vertex 1.41578 6.02862 -2
      vertex 1.41578 6.02862 -1.5
    endloop
  endfacet
  facet normal -0.750113 -0.66131 0
    outer loop
      vertex 1.3484 6.11549 -2
      vertex 1.27569 6.19796 -1.5
      vertex 1.27569 6.19796 -2
    endloop
  endfacet
  facet normal -0.750113 -0.66131 0
    outer loop
      vertex 1.27569 6.19796 -1.5
      vertex 1.3484 6.11549 -2
      vertex 1.3484 6.11549 -1.5
    endloop
  endfacet
  facet normal 0.0314111 -0.999507 0
    outer loop
      vertex -0.109883 6.74655 -2
      vertex 0 6.75 -1.5
      vertex -0.109883 6.74655 -1.5
    endloop
  endfacet
  facet normal 0.0314111 -0.999507 0
    outer loop
      vertex 0 6.75 -1.5
      vertex -0.109883 6.74655 -2
      vertex 0 6.75 -2
    endloop
  endfacet
  facet normal -0.562085 -0.827079 0
    outer loop
      vertex 0.937696 6.47757 -2
      vertex 1.02862 6.41578 -1.5
      vertex 0.937696 6.47757 -1.5
    endloop
  endfacet
  facet normal -0.562085 -0.827079 -0
    outer loop
      vertex 1.02862 6.41578 -1.5
      vertex 0.937696 6.47757 -2
      vertex 1.02862 6.41578 -2
    endloop
  endfacet
  facet normal -0.509038 -0.860744 0
    outer loop
      vertex 0.843068 6.53354 -2
      vertex 0.937696 6.47757 -1.5
      vertex 0.843068 6.53354 -1.5
    endloop
  endfacet
  facet normal -0.509038 -0.860744 -0
    outer loop
      vertex 0.937696 6.47757 -1.5
      vertex 0.843068 6.53354 -2
      vertex 0.937696 6.47757 -2
    endloop
  endfacet
  facet normal -0.453991 -0.891006 0
    outer loop
      vertex 0.745113 6.58345 -2
      vertex 0.843068 6.53354 -1.5
      vertex 0.745113 6.58345 -1.5
    endloop
  endfacet
  facet normal -0.453991 -0.891006 -0
    outer loop
      vertex 0.843068 6.53354 -1.5
      vertex 0.745113 6.58345 -2
      vertex 0.843068 6.53354 -2
    endloop
  endfacet
  facet normal -0.338737 -0.940881 0
    outer loop
      vertex 0.540779 6.66435 -2
      vertex 0.644217 6.62711 -1.5
      vertex 0.540779 6.66435 -1.5
    endloop
  endfacet
  facet normal -0.338737 -0.940881 -0
    outer loop
      vertex 0.644217 6.62711 -1.5
      vertex 0.540779 6.66435 -2
      vertex 0.644217 6.62711 -2
    endloop
  endfacet
  facet normal -0.156439 -0.987688 0
    outer loop
      vertex 0.219333 6.7362 -2
      vertex 0.327917 6.719 -1.5
      vertex 0.219333 6.7362 -1.5
    endloop
  endfacet
  facet normal -0.156439 -0.987688 -0
    outer loop
      vertex 0.327917 6.719 -1.5
      vertex 0.219333 6.7362 -2
      vertex 0.327917 6.719 -2
    endloop
  endfacet
  facet normal 0.940881 -0.338737 0
    outer loop
      vertex -1.66435 5.54078 -1.5
      vertex -1.62711 5.64422 -2
      vertex -1.62711 5.64422 -1.5
    endloop
  endfacet
  facet normal 0.940881 -0.338737 0
    outer loop
      vertex -1.62711 5.64422 -2
      vertex -1.66435 5.54078 -1.5
      vertex -1.66435 5.54078 -2
    endloop
  endfacet
  facet normal 0.987688 -0.156439 0
    outer loop
      vertex -1.7362 5.21933 -1.5
      vertex -1.719 5.32792 -2
      vertex -1.719 5.32792 -1.5
    endloop
  endfacet
  facet normal 0.987688 -0.156439 0
    outer loop
      vertex -1.719 5.32792 -2
      vertex -1.7362 5.21933 -1.5
      vertex -1.7362 5.21933 -2
    endloop
  endfacet
  facet normal 0.278986 -0.960295 0
    outer loop
      vertex -0.540779 6.66435 -2
      vertex -0.435206 6.69502 -1.5
      vertex -0.540779 6.66435 -1.5
    endloop
  endfacet
  facet normal 0.278986 -0.960295 0
    outer loop
      vertex -0.435206 6.69502 -1.5
      vertex -0.540779 6.66435 -2
      vertex -0.435206 6.69502 -2
    endloop
  endfacet
  facet normal 0.509038 -0.860744 0
    outer loop
      vertex -0.937696 6.47757 -2
      vertex -0.843068 6.53354 -1.5
      vertex -0.937696 6.47757 -1.5
    endloop
  endfacet
  facet normal 0.509038 -0.860744 0
    outer loop
      vertex -0.843068 6.53354 -1.5
      vertex -0.937696 6.47757 -2
      vertex -0.843068 6.53354 -2
    endloop
  endfacet
  facet normal 0.612907 -0.790155 0
    outer loop
      vertex -1.11549 6.3484 -2
      vertex -1.02862 6.41578 -1.5
      vertex -1.11549 6.3484 -1.5
    endloop
  endfacet
  facet normal 0.612907 -0.790155 0
    outer loop
      vertex -1.02862 6.41578 -1.5
      vertex -1.11549 6.3484 -2
      vertex -1.02862 6.41578 -2
    endloop
  endfacet
  facet normal 0.66131 -0.750113 0
    outer loop
      vertex -1.19796 6.27569 -2
      vertex -1.11549 6.3484 -1.5
      vertex -1.19796 6.27569 -1.5
    endloop
  endfacet
  facet normal 0.66131 -0.750113 0
    outer loop
      vertex -1.11549 6.3484 -1.5
      vertex -1.19796 6.27569 -2
      vertex -1.11549 6.3484 -2
    endloop
  endfacet
  facet normal -0.999507 -0.0314111 0
    outer loop
      vertex 1.75 5 -2
      vertex 1.74655 5.10988 -1.5
      vertex 1.74655 5.10988 -2
    endloop
  endfacet
  facet normal -0.999507 -0.0314111 0
    outer loop
      vertex 1.74655 5.10988 -1.5
      vertex 1.75 5 -2
      vertex 1.75 5 -1.5
    endloop
  endfacet
  facet normal -0.940881 0.338737 0
    outer loop
      vertex 1.62711 4.35578 -2
      vertex 1.66435 4.45922 -1.5
      vertex 1.66435 4.45922 -2
    endloop
  endfacet
  facet normal -0.940881 0.338737 0
    outer loop
      vertex 1.66435 4.45922 -1.5
      vertex 1.62711 4.35578 -2
      vertex 1.62711 4.35578 -1.5
    endloop
  endfacet
  facet normal -0.960295 0.278986 0
    outer loop
      vertex 1.66435 4.45922 -2
      vertex 1.69502 4.56479 -1.5
      vertex 1.69502 4.56479 -2
    endloop
  endfacet
  facet normal -0.960295 0.278986 0
    outer loop
      vertex 1.69502 4.56479 -1.5
      vertex 1.66435 4.45922 -2
      vertex 1.66435 4.45922 -1.5
    endloop
  endfacet
  facet normal -0.278986 0.960295 0
    outer loop
      vertex 0.540779 3.33565 -2
      vertex 0.435206 3.30498 -1.5
      vertex 0.540779 3.33565 -1.5
    endloop
  endfacet
  facet normal -0.278986 0.960295 0
    outer loop
      vertex 0.435206 3.30498 -1.5
      vertex 0.540779 3.33565 -2
      vertex 0.435206 3.30498 -2
    endloop
  endfacet
  facet normal -0.397152 0.917753 0
    outer loop
      vertex 0.745113 3.41655 -2
      vertex 0.644217 3.37289 -1.5
      vertex 0.745113 3.41655 -1.5
    endloop
  endfacet
  facet normal -0.397152 0.917753 0
    outer loop
      vertex 0.644217 3.37289 -1.5
      vertex 0.745113 3.41655 -2
      vertex 0.644217 3.37289 -2
    endloop
  endfacet
  facet normal -0.338737 0.940881 0
    outer loop
      vertex 0.644217 3.37289 -2
      vertex 0.540779 3.33565 -1.5
      vertex 0.644217 3.37289 -1.5
    endloop
  endfacet
  facet normal -0.338737 0.940881 0
    outer loop
      vertex 0.540779 3.33565 -1.5
      vertex 0.644217 3.37289 -2
      vertex 0.540779 3.33565 -2
    endloop
  endfacet
  facet normal -0.707107 0.707107 0
    outer loop
      vertex 1.19796 3.7243 -2
      vertex 1.27569 3.80204 -1.5
      vertex 1.27569 3.80204 -2
    endloop
  endfacet
  facet normal -0.707107 0.707107 0
    outer loop
      vertex 1.27569 3.80204 -1.5
      vertex 1.19796 3.7243 -2
      vertex 1.19796 3.7243 -1.5
    endloop
  endfacet
  facet normal -0.612907 0.790155 0
    outer loop
      vertex 1.11549 3.6516 -2
      vertex 1.02862 3.58422 -1.5
      vertex 1.11549 3.6516 -1.5
    endloop
  endfacet
  facet normal -0.612907 0.790155 0
    outer loop
      vertex 1.02862 3.58422 -1.5
      vertex 1.11549 3.6516 -2
      vertex 1.02862 3.58422 -2
    endloop
  endfacet
  facet normal -0.66131 0.750113 0
    outer loop
      vertex 1.19796 3.7243 -2
      vertex 1.11549 3.6516 -1.5
      vertex 1.19796 3.7243 -1.5
    endloop
  endfacet
  facet normal -0.66131 0.750113 0
    outer loop
      vertex 1.11549 3.6516 -1.5
      vertex 1.19796 3.7243 -2
      vertex 1.11549 3.6516 -2
    endloop
  endfacet
  facet normal -0.562085 0.827079 0
    outer loop
      vertex 1.02862 3.58422 -2
      vertex 0.937696 3.52243 -1.5
      vertex 1.02862 3.58422 -1.5
    endloop
  endfacet
  facet normal -0.562085 0.827079 0
    outer loop
      vertex 0.937696 3.52243 -1.5
      vertex 1.02862 3.58422 -2
      vertex 0.937696 3.52243 -2
    endloop
  endfacet
  facet normal -0.917753 0.397152 0
    outer loop
      vertex 1.58345 4.25489 -2
      vertex 1.62711 4.35578 -1.5
      vertex 1.62711 4.35578 -2
    endloop
  endfacet
  facet normal -0.917753 0.397152 0
    outer loop
      vertex 1.62711 4.35578 -1.5
      vertex 1.58345 4.25489 -2
      vertex 1.58345 4.25489 -1.5
    endloop
  endfacet
  facet normal -0.860744 0.509038 0
    outer loop
      vertex 1.47757 4.0623 -2
      vertex 1.53354 4.15693 -1.5
      vertex 1.53354 4.15693 -2
    endloop
  endfacet
  facet normal -0.860744 0.509038 0
    outer loop
      vertex 1.53354 4.15693 -1.5
      vertex 1.47757 4.0623 -2
      vertex 1.47757 4.0623 -1.5
    endloop
  endfacet
  facet normal -0.891006 0.453991 0
    outer loop
      vertex 1.53354 4.15693 -2
      vertex 1.58345 4.25489 -1.5
      vertex 1.58345 4.25489 -2
    endloop
  endfacet
  facet normal -0.891006 0.453991 0
    outer loop
      vertex 1.58345 4.25489 -1.5
      vertex 1.53354 4.15693 -2
      vertex 1.53354 4.15693 -1.5
    endloop
  endfacet
  facet normal -0.790155 0.612907 0
    outer loop
      vertex 1.3484 3.88451 -2
      vertex 1.41578 3.97138 -1.5
      vertex 1.41578 3.97138 -2
    endloop
  endfacet
  facet normal -0.790155 0.612907 0
    outer loop
      vertex 1.41578 3.97138 -1.5
      vertex 1.3484 3.88451 -2
      vertex 1.3484 3.88451 -1.5
    endloop
  endfacet
  facet normal 0.338737 0.940881 -0
    outer loop
      vertex -0.540779 3.33565 -2
      vertex -0.644217 3.37289 -1.5
      vertex -0.540779 3.33565 -1.5
    endloop
  endfacet
  facet normal 0.338737 0.940881 0
    outer loop
      vertex -0.644217 3.37289 -1.5
      vertex -0.540779 3.33565 -2
      vertex -0.644217 3.37289 -2
    endloop
  endfacet
  facet normal 0.0314024 0.999507 -0
    outer loop
      vertex 0 3.25 -2
      vertex -0.109883 3.25345 -1.5
      vertex 0 3.25 -1.5
    endloop
  endfacet
  facet normal 0.0314024 0.999507 0
    outer loop
      vertex -0.109883 3.25345 -1.5
      vertex 0 3.25 -2
      vertex -0.109883 3.25345 -2
    endloop
  endfacet
  facet normal 0.278986 0.960295 -0
    outer loop
      vertex -0.435206 3.30498 -2
      vertex -0.540779 3.33565 -1.5
      vertex -0.435206 3.30498 -1.5
    endloop
  endfacet
  facet normal 0.278986 0.960295 0
    outer loop
      vertex -0.540779 3.33565 -1.5
      vertex -0.435206 3.30498 -2
      vertex -0.540779 3.33565 -2
    endloop
  endfacet
  facet normal 0.397152 0.917753 -0
    outer loop
      vertex -0.644217 3.37289 -2
      vertex -0.745113 3.41655 -1.5
      vertex -0.644217 3.37289 -1.5
    endloop
  endfacet
  facet normal 0.397152 0.917753 0
    outer loop
      vertex -0.745113 3.41655 -1.5
      vertex -0.644217 3.37289 -2
      vertex -0.745113 3.41655 -2
    endloop
  endfacet
  facet normal 0.509038 0.860744 -0
    outer loop
      vertex -0.843068 3.46646 -2
      vertex -0.937696 3.52243 -1.5
      vertex -0.843068 3.46646 -1.5
    endloop
  endfacet
  facet normal 0.509038 0.860744 0
    outer loop
      vertex -0.937696 3.52243 -1.5
      vertex -0.843068 3.46646 -2
      vertex -0.937696 3.52243 -2
    endloop
  endfacet
  facet normal 0.453991 0.891006 -0
    outer loop
      vertex -0.745113 3.41655 -2
      vertex -0.843068 3.46646 -1.5
      vertex -0.745113 3.41655 -1.5
    endloop
  endfacet
  facet normal 0.453991 0.891006 0
    outer loop
      vertex -0.843068 3.46646 -1.5
      vertex -0.745113 3.41655 -2
      vertex -0.843068 3.46646 -2
    endloop
  endfacet
  facet normal 0.562085 0.827079 -0
    outer loop
      vertex -0.937696 3.52243 -2
      vertex -1.02862 3.58422 -1.5
      vertex -0.937696 3.52243 -1.5
    endloop
  endfacet
  facet normal 0.562085 0.827079 0
    outer loop
      vertex -1.02862 3.58422 -1.5
      vertex -0.937696 3.52243 -2
      vertex -1.02862 3.58422 -2
    endloop
  endfacet
  facet normal 0.960295 0.278986 0
    outer loop
      vertex -1.66435 4.45922 -1.5
      vertex -1.69502 4.56479 -2
      vertex -1.69502 4.56479 -1.5
    endloop
  endfacet
  facet normal 0.960295 0.278986 0
    outer loop
      vertex -1.69502 4.56479 -2
      vertex -1.66435 4.45922 -1.5
      vertex -1.66435 4.45922 -2
    endloop
  endfacet
  facet normal 0.987688 0.156439 0
    outer loop
      vertex -1.719 4.67208 -1.5
      vertex -1.7362 4.78067 -2
      vertex -1.7362 4.78067 -1.5
    endloop
  endfacet
  facet normal 0.987688 0.156439 0
    outer loop
      vertex -1.7362 4.78067 -2
      vertex -1.719 4.67208 -1.5
      vertex -1.719 4.67208 -2
    endloop
  endfacet
  facet normal 0.975917 0.218144 0
    outer loop
      vertex -1.69502 4.56479 -1.5
      vertex -1.719 4.67208 -2
      vertex -1.719 4.67208 -1.5
    endloop
  endfacet
  facet normal 0.975917 0.218144 0
    outer loop
      vertex -1.719 4.67208 -2
      vertex -1.69502 4.56479 -1.5
      vertex -1.69502 4.56479 -2
    endloop
  endfacet
  facet normal 0.827079 0.562085 0
    outer loop
      vertex -1.41578 3.97138 -1.5
      vertex -1.47757 4.0623 -2
      vertex -1.47757 4.0623 -1.5
    endloop
  endfacet
  facet normal 0.827079 0.562085 0
    outer loop
      vertex -1.47757 4.0623 -2
      vertex -1.41578 3.97138 -1.5
      vertex -1.41578 3.97138 -2
    endloop
  endfacet
  facet normal 0.891006 0.453991 0
    outer loop
      vertex -1.53354 4.15693 -1.5
      vertex -1.58345 4.25489 -2
      vertex -1.58345 4.25489 -1.5
    endloop
  endfacet
  facet normal 0.891006 0.453991 0
    outer loop
      vertex -1.58345 4.25489 -2
      vertex -1.53354 4.15693 -1.5
      vertex -1.53354 4.15693 -2
    endloop
  endfacet
  facet normal 0.707107 0.707107 0
    outer loop
      vertex -1.19796 3.7243 -1.5
      vertex -1.27569 3.80204 -2
      vertex -1.27569 3.80204 -1.5
    endloop
  endfacet
  facet normal 0.707107 0.707107 0
    outer loop
      vertex -1.27569 3.80204 -2
      vertex -1.19796 3.7243 -1.5
      vertex -1.19796 3.7243 -2
    endloop
  endfacet
  facet normal -0.0314111 -0.999507 0
    outer loop
      vertex 0 6.75 -2
      vertex 0.109883 6.74655 -1.5
      vertex 0 6.75 -1.5
    endloop
  endfacet
  facet normal -0.0314111 -0.999507 -0
    outer loop
      vertex 0.109883 6.74655 -1.5
      vertex 0 6.75 -2
      vertex 0.109883 6.74655 -2
    endloop
  endfacet
  facet normal 0.999507 -0.0314111 0
    outer loop
      vertex -1.75 5 -1.5
      vertex -1.74655 5.10988 -2
      vertex -1.74655 5.10988 -1.5
    endloop
  endfacet
  facet normal 0.999507 -0.0314111 0
    outer loop
      vertex -1.74655 5.10988 -2
      vertex -1.75 5 -1.5
      vertex -1.75 5 -2
    endloop
  endfacet
  facet normal 0.860744 -0.509038 0
    outer loop
      vertex -1.53354 5.84307 -1.5
      vertex -1.47757 5.9377 -2
      vertex -1.47757 5.9377 -1.5
    endloop
  endfacet
  facet normal 0.860744 -0.509038 0
    outer loop
      vertex -1.47757 5.9377 -2
      vertex -1.53354 5.84307 -1.5
      vertex -1.53354 5.84307 -2
    endloop
  endfacet
  facet normal 0.790155 -0.612907 0
    outer loop
      vertex -1.41578 6.02862 -1.5
      vertex -1.3484 6.11549 -2
      vertex -1.3484 6.11549 -1.5
    endloop
  endfacet
  facet normal 0.790155 -0.612907 0
    outer loop
      vertex -1.3484 6.11549 -2
      vertex -1.41578 6.02862 -1.5
      vertex -1.41578 6.02862 -2
    endloop
  endfacet
  facet normal 0.156439 -0.987688 0
    outer loop
      vertex -0.327917 6.719 -2
      vertex -0.219333 6.7362 -1.5
      vertex -0.327917 6.719 -1.5
    endloop
  endfacet
  facet normal 0.156439 -0.987688 0
    outer loop
      vertex -0.219333 6.7362 -1.5
      vertex -0.327917 6.719 -2
      vertex -0.219333 6.7362 -2
    endloop
  endfacet
  facet normal -0.987688 0.156439 0
    outer loop
      vertex 1.719 4.67208 -2
      vertex 1.7362 4.78067 -1.5
      vertex 1.7362 4.78067 -2
    endloop
  endfacet
  facet normal -0.987688 0.156439 0
    outer loop
      vertex 1.7362 4.78067 -1.5
      vertex 1.719 4.67208 -2
      vertex 1.719 4.67208 -1.5
    endloop
  endfacet
  facet normal -0.218144 0.975917 0
    outer loop
      vertex 0.435206 3.30498 -2
      vertex 0.327917 3.281 -1.5
      vertex 0.435206 3.30498 -1.5
    endloop
  endfacet
  facet normal -0.218144 0.975917 0
    outer loop
      vertex 0.327917 3.281 -1.5
      vertex 0.435206 3.30498 -2
      vertex 0.327917 3.281 -2
    endloop
  endfacet
  facet normal -0.509038 0.860744 0
    outer loop
      vertex 0.937696 3.52243 -2
      vertex 0.843068 3.46646 -1.5
      vertex 0.937696 3.52243 -1.5
    endloop
  endfacet
  facet normal -0.509038 0.860744 0
    outer loop
      vertex 0.843068 3.46646 -1.5
      vertex 0.937696 3.52243 -2
      vertex 0.843068 3.46646 -2
    endloop
  endfacet
  facet normal 0.156439 0.987688 -0
    outer loop
      vertex -0.219333 3.2638 -2
      vertex -0.327917 3.281 -1.5
      vertex -0.219333 3.2638 -1.5
    endloop
  endfacet
  facet normal 0.156439 0.987688 0
    outer loop
      vertex -0.327917 3.281 -1.5
      vertex -0.219333 3.2638 -2
      vertex -0.327917 3.281 -2
    endloop
  endfacet
  facet normal 0.940881 0.338737 0
    outer loop
      vertex -1.62711 4.35578 -1.5
      vertex -1.66435 4.45922 -2
      vertex -1.66435 4.45922 -1.5
    endloop
  endfacet
  facet normal 0.940881 0.338737 0
    outer loop
      vertex -1.66435 4.45922 -2
      vertex -1.62711 4.35578 -1.5
      vertex -1.62711 4.35578 -2
    endloop
  endfacet
  facet normal 0.750113 0.66131 0
    outer loop
      vertex -1.27569 3.80204 -1.5
      vertex -1.3484 3.88451 -2
      vertex -1.3484 3.88451 -1.5
    endloop
  endfacet
  facet normal 0.750113 0.66131 0
    outer loop
      vertex -1.3484 3.88451 -2
      vertex -1.27569 3.80204 -1.5
      vertex -1.27569 3.80204 -2
    endloop
  endfacet
endsolid OpenSCAD_Model
