solid OpenSCAD_Model
  facet normal -1 0 0
    outer loop
      vertex 40 57.5 0
      vertex 40 2.5 7
      vertex 40 57.5 7
    endloop
  endfacet
  facet normal -1 0 0
    outer loop
      vertex 40 0 0
      vertex 40 2.5 7
      vertex 40 57.5 0
    endloop
  endfacet
  facet normal -1 0 0
    outer loop
      vertex 40 0 9.5
      vertex 40 2.5 7
      vertex 40 0 0
    endloop
  endfacet
  facet normal -1 0 0
    outer loop
      vertex 40 2.5 7
      vertex 40 0 9.5
      vertex 40 2.5 9.5
    endloop
  endfacet
  facet normal -0 0 1
    outer loop
      vertex 40 57.5 7
      vertex 42.5 57.4 7
      vertex 42.5 57.5 7
    endloop
  endfacet
  facet normal 0 0 1
    outer loop
      vertex 40 2.5 7
      vertex 42.5 57.4 7
      vertex 40 57.5 7
    endloop
  endfacet
  facet normal 0 0 1
    outer loop
      vertex 42.5 57.4 7
      vertex 40 2.5 7
      vertex 42.5 2.5 7
    endloop
  endfacet
  facet normal 1 -0 0
    outer loop
      vertex 42.5 2.5 7
      vertex 42.5 57.4 2
      vertex 42.5 57.4 7
    endloop
  endfacet
  facet normal 1 0 0
    outer loop
      vertex 42.5 0 2
      vertex 42.5 2.5 7
      vertex 42.5 0 7
    endloop
  endfacet
  facet normal 1 0 0
    outer loop
      vertex 42.5 2.5 7
      vertex 42.5 0 2
      vertex 42.5 57.4 2
    endloop
  endfacet
  facet normal 1 -0 0
    outer loop
      vertex 42.5 57.5 7
      vertex 42.5 60 2
      vertex 42.5 60 7
    endloop
  endfacet
  facet normal 1 0 0
    outer loop
      vertex 42.5 57.4 2
      vertex 42.5 57.5 7
      vertex 42.5 57.4 7
    endloop
  endfacet
  facet normal 1 0 0
    outer loop
      vertex 42.5 57.5 7
      vertex 42.5 57.4 2
      vertex 42.5 60 2
    endloop
  endfacet
  facet normal -0 0 1
    outer loop
      vertex 42.5 57.4 2
      vertex 47.5 0 2
      vertex 47.5 57.4 2
    endloop
  endfacet
  facet normal 0 0 1
    outer loop
      vertex 47.5 0 2
      vertex 42.5 57.4 2
      vertex 42.5 0 2
    endloop
  endfacet
  facet normal -0 0 1
    outer loop
      vertex 42.5 60 2
      vertex 47.5 57.4 2
      vertex 47.5 60 2
    endloop
  endfacet
  facet normal 0 0 1
    outer loop
      vertex 47.5 57.4 2
      vertex 42.5 60 2
      vertex 42.5 57.4 2
    endloop
  endfacet
  facet normal 0 -1 0
    outer loop
      vertex 40 0 9.5
      vertex 42.5 0 7
      vertex 50 0 9.5
    endloop
  endfacet
  facet normal 0 -1 0
    outer loop
      vertex 40 0 0
      vertex 42.5 0 7
      vertex 40 0 9.5
    endloop
  endfacet
  facet normal 0 -1 -0
    outer loop
      vertex 42.5 0 2
      vertex 40 0 0
      vertex 47.5 0 2
    endloop
  endfacet
  facet normal 0 -1 -0
    outer loop
      vertex 42.5 0 7
      vertex 40 0 0
      vertex 42.5 0 2
    endloop
  endfacet
  facet normal 0 -1 0
    outer loop
      vertex 47.5 0 7
      vertex 50 0 9.5
      vertex 42.5 0 7
    endloop
  endfacet
  facet normal 0 -1 0
    outer loop
      vertex 50 0 0
      vertex 47.5 0 7
      vertex 47.5 0 2
    endloop
  endfacet
  facet normal 0 -1 0
    outer loop
      vertex 47.5 0 7
      vertex 50 0 0
      vertex 50 0 9.5
    endloop
  endfacet
  facet normal 0 -1 0
    outer loop
      vertex 50 0 0
      vertex 47.5 0 2
      vertex 40 0 0
    endloop
  endfacet
  facet normal -1 0 0
    outer loop
      vertex 47.5 57.4 2
      vertex 47.5 2.5 7
      vertex 47.5 57.4 7
    endloop
  endfacet
  facet normal -1 0 0
    outer loop
      vertex 47.5 0 2
      vertex 47.5 2.5 7
      vertex 47.5 57.4 2
    endloop
  endfacet
  facet normal -1 -0 0
    outer loop
      vertex 47.5 2.5 7
      vertex 47.5 0 2
      vertex 47.5 0 7
    endloop
  endfacet
  facet normal -1 0 0
    outer loop
      vertex 47.5 60 2
      vertex 47.5 57.5 7
      vertex 47.5 60 7
    endloop
  endfacet
  facet normal -1 0 0
    outer loop
      vertex 47.5 57.4 2
      vertex 47.5 57.5 7
      vertex 47.5 60 2
    endloop
  endfacet
  facet normal -1 -0 0
    outer loop
      vertex 47.5 57.5 7
      vertex 47.5 57.4 2
      vertex 47.5 57.4 7
    endloop
  endfacet
  facet normal 0 0 1
    outer loop
      vertex 47.5 57.4 7
      vertex 50 57.5 7
      vertex 47.5 57.5 7
    endloop
  endfacet
  facet normal 0 0 1
    outer loop
      vertex 50 57.5 7
      vertex 47.5 57.4 7
      vertex 50 2.5 7
    endloop
  endfacet
  facet normal 0 0 1
    outer loop
      vertex 50 2.5 7
      vertex 47.5 57.4 7
      vertex 47.5 2.5 7
    endloop
  endfacet
  facet normal 1 0 0
    outer loop
      vertex 50 2.5 9.5
      vertex 50 0 9.5
      vertex 50 2.5 7
    endloop
  endfacet
  facet normal 1 -0 0
    outer loop
      vertex 50 2.5 7
      vertex 50 57.5 0
      vertex 50 57.5 7
    endloop
  endfacet
  facet normal 1 0 0
    outer loop
      vertex 50 2.5 7
      vertex 50 0 0
      vertex 50 57.5 0
    endloop
  endfacet
  facet normal 1 0 0
    outer loop
      vertex 50 0 0
      vertex 50 2.5 7
      vertex 50 0 9.5
    endloop
  endfacet
  facet normal -0 0 1
    outer loop
      vertex 40 2.5 9.5
      vertex 50 0 9.5
      vertex 50 2.5 9.5
    endloop
  endfacet
  facet normal 0 0 1
    outer loop
      vertex 50 0 9.5
      vertex 40 2.5 9.5
      vertex 40 0 9.5
    endloop
  endfacet
  facet normal 0 1 0
    outer loop
      vertex 47.5 2.5 7
      vertex 50 2.5 9.5
      vertex 50 2.5 7
    endloop
  endfacet
  facet normal 0 1 0
    outer loop
      vertex 50 2.5 9.5
      vertex 47.5 2.5 7
      vertex 40 2.5 9.5
    endloop
  endfacet
  facet normal 0 1 -0
    outer loop
      vertex 42.5 2.5 7
      vertex 40 2.5 9.5
      vertex 47.5 2.5 7
    endloop
  endfacet
  facet normal 0 1 0
    outer loop
      vertex 40 2.5 9.5
      vertex 42.5 2.5 7
      vertex 40 2.5 7
    endloop
  endfacet
  facet normal 0 0 -1
    outer loop
      vertex 42.5 0 7
      vertex 47.5 2.5 7
      vertex 47.5 0 7
    endloop
  endfacet
  facet normal -0 0 -1
    outer loop
      vertex 47.5 2.5 7
      vertex 42.5 0 7
      vertex 42.5 2.5 7
    endloop
  endfacet
  facet normal 0 0 -1
    outer loop
      vertex 50 0 0
      vertex 40 0 0
      vertex 50 57.5 0
    endloop
  endfacet
  facet normal 0 0 -1
    outer loop
      vertex 50 57.5 0
      vertex 55 69.5 0
      vertex 55 57.5 0
    endloop
  endfacet
  facet normal 0 0 -1
    outer loop
      vertex 40 57.5 0
      vertex 50 57.5 0
      vertex 40 0 0
    endloop
  endfacet
  facet normal 0 0 -1
    outer loop
      vertex 40 57.5 0
      vertex 55 69.5 0
      vertex 50 57.5 0
    endloop
  endfacet
  facet normal 0 0 -1
    outer loop
      vertex 35 69.5 0
      vertex 40 57.5 0
      vertex 35 57.5 0
    endloop
  endfacet
  facet normal 0 0 -1
    outer loop
      vertex 40 57.5 0
      vertex 35 69.5 0
      vertex 55 69.5 0
    endloop
  endfacet
  facet normal -1 0 0
    outer loop
      vertex 35 57.5 0
      vertex 35 69.5 11
      vertex 35 69.5 0
    endloop
  endfacet
  facet normal -1 -0 0
    outer loop
      vertex 35 69.5 11
      vertex 35 57.5 0
      vertex 35 57.5 11
    endloop
  endfacet
  facet normal 0 0 1
    outer loop
      vertex 55 69.5 11
      vertex 52.5 67 11
      vertex 55 57.5 11
    endloop
  endfacet
  facet normal 0 0 1
    outer loop
      vertex 55 69.5 11
      vertex 37.5 67 11
      vertex 52.5 67 11
    endloop
  endfacet
  facet normal 0 0 1
    outer loop
      vertex 37.5 67 11
      vertex 35 69.5 11
      vertex 37.5 60 11
    endloop
  endfacet
  facet normal -0 0 1
    outer loop
      vertex 35 69.5 11
      vertex 37.5 67 11
      vertex 55 69.5 11
    endloop
  endfacet
  facet normal -0 0 1
    outer loop
      vertex 52.5 60 11
      vertex 55 57.5 11
      vertex 52.5 67 11
    endloop
  endfacet
  facet normal -0 0 1
    outer loop
      vertex 37.5 60 11
      vertex 55 57.5 11
      vertex 52.5 60 11
    endloop
  endfacet
  facet normal 0 0 1
    outer loop
      vertex 37.5 60 11
      vertex 35 57.5 11
      vertex 55 57.5 11
    endloop
  endfacet
  facet normal 0 0 1
    outer loop
      vertex 35 57.5 11
      vertex 37.5 60 11
      vertex 35 69.5 11
    endloop
  endfacet
  facet normal 1 -0 0
    outer loop
      vertex 55 57.5 11
      vertex 55 69.5 0
      vertex 55 69.5 11
    endloop
  endfacet
  facet normal 1 0 0
    outer loop
      vertex 55 69.5 0
      vertex 55 57.5 11
      vertex 55 57.5 0
    endloop
  endfacet
  facet normal 0 1 0
    outer loop
      vertex 55 69.5 11
      vertex 47.5 69.5 7
      vertex 35 69.5 11
    endloop
  endfacet
  facet normal 0 1 -0
    outer loop
      vertex 55 69.5 0
      vertex 47.5 69.5 7
      vertex 55 69.5 11
    endloop
  endfacet
  facet normal 0 1 0
    outer loop
      vertex 47.5 69.5 2
      vertex 55 69.5 0
      vertex 42.5 69.5 2
    endloop
  endfacet
  facet normal 0 1 0
    outer loop
      vertex 47.5 69.5 7
      vertex 55 69.5 0
      vertex 47.5 69.5 2
    endloop
  endfacet
  facet normal 0 1 -0
    outer loop
      vertex 42.5 69.5 7
      vertex 35 69.5 11
      vertex 47.5 69.5 7
    endloop
  endfacet
  facet normal 0 1 0
    outer loop
      vertex 35 69.5 0
      vertex 42.5 69.5 7
      vertex 42.5 69.5 2
    endloop
  endfacet
  facet normal 0 1 0
    outer loop
      vertex 42.5 69.5 7
      vertex 35 69.5 0
      vertex 35 69.5 11
    endloop
  endfacet
  facet normal 0 1 0
    outer loop
      vertex 35 69.5 0
      vertex 42.5 69.5 2
      vertex 55 69.5 0
    endloop
  endfacet
  facet normal 0 -1 0
    outer loop
      vertex 42.5 57.5 7
      vertex 35 57.5 11
      vertex 40 57.5 7
    endloop
  endfacet
  facet normal 0 -1 0
    outer loop
      vertex 35 57.5 0
      vertex 40 57.5 7
      vertex 35 57.5 11
    endloop
  endfacet
  facet normal 0 -1 -0
    outer loop
      vertex 40 57.5 7
      vertex 35 57.5 0
      vertex 40 57.5 0
    endloop
  endfacet
  facet normal 0 -1 0
    outer loop
      vertex 35 57.5 11
      vertex 42.5 57.5 7
      vertex 55 57.5 11
    endloop
  endfacet
  facet normal 0 -1 0
    outer loop
      vertex 47.5 57.5 7
      vertex 55 57.5 11
      vertex 42.5 57.5 7
    endloop
  endfacet
  facet normal 0 -1 0
    outer loop
      vertex 50 57.5 7
      vertex 55 57.5 11
      vertex 47.5 57.5 7
    endloop
  endfacet
  facet normal 0 -1 0
    outer loop
      vertex 55 57.5 0
      vertex 50 57.5 7
      vertex 50 57.5 0
    endloop
  endfacet
  facet normal 0 -1 0
    outer loop
      vertex 50 57.5 7
      vertex 55 57.5 0
      vertex 55 57.5 11
    endloop
  endfacet
  facet normal 0 0 -1
    outer loop
      vertex 42.5 57.5 7
      vertex 47.5 60 7
      vertex 47.5 57.5 7
    endloop
  endfacet
  facet normal -0 0 -1
    outer loop
      vertex 47.5 60 7
      vertex 42.5 57.5 7
      vertex 42.5 60 7
    endloop
  endfacet
  facet normal 1 -0 0
    outer loop
      vertex 42.5 67 7
      vertex 42.5 69.5 2
      vertex 42.5 69.5 7
    endloop
  endfacet
  facet normal 1 0 0
    outer loop
      vertex 42.5 69.5 2
      vertex 42.5 67 7
      vertex 42.5 67 2
    endloop
  endfacet
  facet normal 0 0 -1
    outer loop
      vertex 42.5 67 7
      vertex 47.5 69.5 7
      vertex 47.5 67 7
    endloop
  endfacet
  facet normal -0 0 -1
    outer loop
      vertex 47.5 69.5 7
      vertex 42.5 67 7
      vertex 42.5 69.5 7
    endloop
  endfacet
  facet normal -1 0 0
    outer loop
      vertex 47.5 67 2
      vertex 47.5 69.5 7
      vertex 47.5 69.5 2
    endloop
  endfacet
  facet normal -1 -0 0
    outer loop
      vertex 47.5 69.5 7
      vertex 47.5 67 2
      vertex 47.5 67 7
    endloop
  endfacet
  facet normal -0 0 1
    outer loop
      vertex 42.5 69.5 2
      vertex 47.5 67 2
      vertex 47.5 69.5 2
    endloop
  endfacet
  facet normal 0 0 1
    outer loop
      vertex 47.5 67 2
      vertex 42.5 69.5 2
      vertex 42.5 67 2
    endloop
  endfacet
  facet normal 1 -0 0
    outer loop
      vertex 37.5 60 11
      vertex 37.5 67 1.9
      vertex 37.5 67 11
    endloop
  endfacet
  facet normal 1 0 0
    outer loop
      vertex 37.5 67 1.9
      vertex 37.5 60 11
      vertex 37.5 60 1.9
    endloop
  endfacet
  facet normal -1 0 0
    outer loop
      vertex 52.5 60 1.9
      vertex 52.5 67 11
      vertex 52.5 67 1.9
    endloop
  endfacet
  facet normal -1 -0 0
    outer loop
      vertex 52.5 67 11
      vertex 52.5 60 1.9
      vertex 52.5 60 11
    endloop
  endfacet
  facet normal -0 0 1
    outer loop
      vertex 37.5 67 1.9
      vertex 52.5 60 1.9
      vertex 52.5 67 1.9
    endloop
  endfacet
  facet normal 0 0 1
    outer loop
      vertex 52.5 60 1.9
      vertex 37.5 67 1.9
      vertex 37.5 60 1.9
    endloop
  endfacet
  facet normal 0 1 0
    outer loop
      vertex 52.5 60 11
      vertex 47.5 60 7
      vertex 37.5 60 11
    endloop
  endfacet
  facet normal 0 1 -0
    outer loop
      vertex 52.5 60 1.9
      vertex 47.5 60 7
      vertex 52.5 60 11
    endloop
  endfacet
  facet normal 0 1 0
    outer loop
      vertex 47.5 60 2
      vertex 52.5 60 1.9
      vertex 42.5 60 2
    endloop
  endfacet
  facet normal 0 1 0
    outer loop
      vertex 47.5 60 7
      vertex 52.5 60 1.9
      vertex 47.5 60 2
    endloop
  endfacet
  facet normal 0 1 -0
    outer loop
      vertex 42.5 60 7
      vertex 37.5 60 11
      vertex 47.5 60 7
    endloop
  endfacet
  facet normal 0 1 0
    outer loop
      vertex 37.5 60 1.9
      vertex 42.5 60 7
      vertex 42.5 60 2
    endloop
  endfacet
  facet normal 0 1 0
    outer loop
      vertex 42.5 60 7
      vertex 37.5 60 1.9
      vertex 37.5 60 11
    endloop
  endfacet
  facet normal 0 1 0
    outer loop
      vertex 37.5 60 1.9
      vertex 42.5 60 2
      vertex 52.5 60 1.9
    endloop
  endfacet
  facet normal 0 -1 0
    outer loop
      vertex 37.5 67 11
      vertex 42.5 67 7
      vertex 52.5 67 11
    endloop
  endfacet
  facet normal 0 -1 0
    outer loop
      vertex 37.5 67 1.9
      vertex 42.5 67 7
      vertex 37.5 67 11
    endloop
  endfacet
  facet normal 0 -1 -0
    outer loop
      vertex 42.5 67 2
      vertex 37.5 67 1.9
      vertex 47.5 67 2
    endloop
  endfacet
  facet normal 0 -1 -0
    outer loop
      vertex 42.5 67 7
      vertex 37.5 67 1.9
      vertex 42.5 67 2
    endloop
  endfacet
  facet normal 0 -1 0
    outer loop
      vertex 47.5 67 7
      vertex 52.5 67 11
      vertex 42.5 67 7
    endloop
  endfacet
  facet normal 0 -1 0
    outer loop
      vertex 52.5 67 1.9
      vertex 47.5 67 7
      vertex 47.5 67 2
    endloop
  endfacet
  facet normal 0 -1 0
    outer loop
      vertex 47.5 67 7
      vertex 52.5 67 1.9
      vertex 52.5 67 11
    endloop
  endfacet
  facet normal 0 -1 0
    outer loop
      vertex 52.5 67 1.9
      vertex 47.5 67 2
      vertex 37.5 67 1.9
    endloop
  endfacet
endsolid OpenSCAD_Model
